<?xml version="1.0" encoding="UTF-8" standalone="no"?>
<svg
   xmlns:dc="http://purl.org/dc/elements/1.1/"
   xmlns:cc="http://creativecommons.org/ns#"
   xmlns:rdf="http://www.w3.org/1999/02/22-rdf-syntax-ns#"
   xmlns:svg="http://www.w3.org/2000/svg"
   xmlns="http://www.w3.org/2000/svg"
   xmlns:sodipodi="http://sodipodi.sourceforge.net/DTD/sodipodi-0.dtd"
   xmlns:inkscape="http://www.inkscape.org/namespaces/inkscape"
   width="243px"
   height="93px"
   viewBox="0 0 243 93"
   version="1.1"
   id="svg71"
   sodipodi:docname="alc-logo.svg"
   inkscape:version="1.0.1 (3bc2e813f5, 2020-09-07)">
  <metadata
     id="metadata75">
    <rdf:RDF>
      <cc:Work
         rdf:about="">
        <dc:format>image/svg+xml</dc:format>
        <dc:type
           rdf:resource="http://purl.org/dc/dcmitype/StillImage" />
      </cc:Work>
    </rdf:RDF>
  </metadata>
  <sodipodi:namedview
     pagecolor="#ffffff"
     bordercolor="#666666"
     borderopacity="1"
     objecttolerance="10"
     gridtolerance="10"
     guidetolerance="10"
     inkscape:pageopacity="0"
     inkscape:pageshadow="2"
     inkscape:window-width="2560"
     inkscape:window-height="1017"
     id="namedview73"
     showgrid="false"
     inkscape:zoom="1.1851852"
     inkscape:cx="446.95367"
     inkscape:cy="209.47722"
     inkscape:window-x="1912"
     inkscape:window-y="-8"
     inkscape:window-maximized="1"
     inkscape:current-layer="svg71" />
  <!-- Generator: Sketch 39.1 (31720) - http://www.bohemiancoding.com/sketch -->
  <title
     id="title2">Logo_Coscioni_scelto (3)</title>
  <desc
     id="desc4">Created with Sketch.</desc>
  <defs
     id="defs6" />
  <g
     id="Page-1"
     stroke="none"
     stroke-width="1"
     fill="none"
     fill-rule="evenodd"
     transform="matrix(2.0614205,0,0,2.0614205,-0.36188939,-0.69153362)">
    <g
       id="Logo_Coscioni_scelto-(3)">
      <path
         d="M 5.7375378,68.933473 C 3.6341786,65.076315 1.9988319,60.616329 1.068876,55.395617 0.5974916,52.748797 0.43496849,49.857099 0.3499979,47.021603 0.26705042,44.208855 0.76203781,41.538617 1.5173319,39.184178 2.932834,34.767682 5.5096008,30.98479 8.7445525,28.183416 12.088752,25.289711 15.960309,23.220963 21.043708,22.215358 c 5.699773,-1.126036 11.465634,-0.09166 15.621775,1.693403 4.243135,1.821863 7.498992,4.581086 10.144544,8.061561 3.079173,-3.715316 7.009399,-7.016482 12.20879,-8.774784 2.545746,-0.860417 5.695727,-1.526806 8.978559,-1.558252 3.303737,-0.03212 6.334355,0.661036 8.979233,1.514094 C 74.339149,16.74174 68.963748,12.477121 62.521494,9.6128547 56.147351,6.7773583 48.148651,4.6818475 38.998802,5.6493151 38.932714,5.5295525 39.164698,5.2565741 39.314408,5.069905 40.332031,3.7913223 41.527689,2.3300849 42.59117,1.0615381 44.111874,0.85948058 45.376317,0.69020719 46.945576,0.66076835 60.979884,0.3978259 70.241679,5.8272863 70.241679,5.8272863 c 1.247584,0.6877986 1.920605,1.156813 2.828306,1.7817195 6.346494,4.3656472 11.654458,9.7014392 15.352028,16.6556982 2.071664,3.896633 3.779168,8.412151 4.667313,13.62818 0.453176,2.652841 0.628512,5.577323 0.719552,8.418172 0.08834,2.790669 -0.494313,5.580669 -1.257025,7.838094 -1.490357,4.41382 -4.067124,8.129805 -7.362769,10.954597 -3.344199,2.866942 -7.268357,5.007949 -12.388847,5.924568 -5.694378,1.018986 -11.505422,0.05553 -15.710117,-1.783057 -4.286969,-1.872713 -7.442345,-4.623907 -10.10071,-8.194705 -2.965879,3.91269 -7.023561,7.134906 -12.253973,8.952755 -2.54642,0.884503 -5.846786,1.574978 -9.11141,1.425108 -3.313853,-0.152547 -6.380212,-0.637619 -8.979233,-1.647238 1.10799,3.321238 3.323969,6.019576 5.746305,8.238864 3.681384,3.370079 8.536846,5.520453 13.601363,7.481482 1.707504,0.661036 3.644969,1.03705 5.610756,1.425108 3.923484,0.774108 8.337908,1.178223 12.972851,0.667726 0.08227,0.212094 -0.156454,0.367317 -0.269073,0.533914 -0.859147,1.283935 -1.91049,2.628086 -2.783124,3.919381 C 35.819149,95.261171 21.043708,85.545682 21.043708,85.545682 14.679006,81.334588 9.4452227,75.735855 5.7375378,68.933473 Z"
         id="Fill-1"
         fill="#1076b5" />
      <polygon
         id="Fill-3"
         fill="#ffffff"
         points="22.51869,56.4324 17.105524,56.4324 25.748921,35.989127 30.58078,35.989127 39.137183,56.4324 33.607351,56.4324 28.077519,41.446688 " />
      <polygon
         id="Fill-5"
         fill="#ffffff"
         points="42.017888,35.989461 47.023735,35.989461 47.023735,52.130648 54.998157,52.130648 54.998157,56.432735 42.017888,56.432735 " />
      <path
         d="m 72.372687,56.071774 c -1.338624,0.606173 -2.881582,0.909259 -4.627525,0.909259 -1.590838,0 -3.060965,-0.259597 -4.40903,-0.77946 -1.348739,-0.519864 -2.517422,-1.255835 -3.507397,-2.208583 -0.9893,-0.952748 -1.7655,-2.093504 -2.327924,-3.421597 C 56.937712,49.24263 56.6565,47.780055 56.6565,46.182328 c 0,-1.635863 0.285933,-3.118511 0.858473,-4.446604 0.57254,-1.328763 1.362901,-2.458813 2.372432,-3.392828 1.008183,-0.934014 2.192377,-1.650582 3.550557,-2.151712 1.357506,-0.499791 2.822912,-0.75069 4.394868,-0.75069 1.454615,0 2.885628,0.255582 4.292363,0.76541 1.406736,0.510496 2.54642,1.255834 3.419729,2.238021 l -3.375895,3.349338 c -0.465989,-0.635611 -1.076968,-1.106633 -1.833611,-1.415072 -0.756643,-0.307769 -1.532843,-0.461654 -2.328599,-0.461654 -0.872634,0 -1.673111,0.158568 -2.400756,0.476374 -0.727645,0.317137 -1.35346,0.755374 -1.877446,1.313374 -0.52331,0.558669 -0.931304,1.217698 -1.221957,1.978424 -0.291328,0.760727 -0.436992,1.593043 -0.436992,2.497619 0,0.923979 0.145664,1.771014 0.436992,2.541108 0.290653,0.770093 0.693252,1.429122 1.207796,1.977755 0.51387,0.548634 1.130243,0.976835 1.847773,1.284605 0.717529,0.308439 1.503844,0.462323 2.357597,0.462323 0.9893,0 1.852493,-0.192021 2.590254,-0.577403 0.737086,-0.385381 1.328508,-0.885172 1.775615,-1.501381 l 3.462889,3.23359 c -0.911748,1.039727 -2.037271,1.862676 -3.375895,2.468849"
         id="Fill-7"
         fill="#ffffff" />
      <g
         id="Group"
         transform="translate(106,26)"
         fill="#1076b5">
        <path
           d="M 4.3348325,8.6015968 H 9.0595453 L 6.7064278,2.736636 Z M 2.4449473,13.212244 H 0.48329983 L 5.9570054,0.7044431 H 7.5619897 L 12.981981,13.212244 H 10.985527 L 9.7015391,10.138195 H 3.7108868 Z"
           id="Fill-9" />
        <path
           d="M 21.148236,3.0187928 C 20.898571,2.6773265 20.559956,2.3980224 20.13196,2.1796031 19.704394,1.9620354 19.222684,1.8530387 18.687689,1.8530387 c -0.28533,0 -0.573669,0.038319 -0.864586,0.1145317 -0.291346,0.077064 -0.555621,0.200537 -0.793683,0.3712702 -0.238062,0.1707331 -0.431003,0.3827658 -0.579685,0.6356723 -0.148251,0.253758 -0.222592,0.5564794 -0.222592,0.9098672 0,0.3418921 0.06832,0.6275827 0.204974,0.857072 0.136649,0.2294892 0.320997,0.4240654 0.553043,0.582877 0.231616,0.1588116 0.504915,0.294206 0.820325,0.4061831 0.314551,0.1124029 0.650158,0.2269346 1.006822,0.3448725 0.428425,0.1294336 0.861578,0.2767495 1.302035,0.4415219 0.439169,0.1651982 0.837944,0.3827659 1.194177,0.6535546 0.356663,0.2712145 0.64801,0.6097005 0.87361,1.0158836 0.22603,0.4061831 0.339045,0.9217888 0.339045,1.5459653 0,0.6475939 -0.122039,1.2096079 -0.365257,1.6864689 -0.244078,0.477712 -0.568083,0.871974 -0.972015,1.184062 -0.403932,0.312089 -0.870602,0.544984 -1.399581,0.697409 -0.528979,0.153277 -1.072997,0.229915 -1.631626,0.229915 -0.796262,0 -1.565881,-0.153277 -2.308857,-0.459404 -0.742977,-0.305702 -1.358328,-0.759571 -1.845625,-1.359905 l 1.373368,-1.148297 c 0.296933,0.435561 0.695279,0.788949 1.194607,1.059737 0.498899,0.271215 1.03991,0.406184 1.622173,0.406184 0.297362,0 0.594295,-0.0413 0.891658,-0.123473 0.296933,-0.08217 0.567653,-0.212033 0.811301,-0.388727 0.243648,-0.176694 0.442606,-0.397668 0.597304,-0.662496 0.154267,-0.264828 0.231616,-0.585857 0.231616,-0.9626622 0,-0.3768051 -0.08036,-0.691448 -0.24064,-0.945206 C 20.318886,8.6925835 20.10188,8.4775704 19.829012,8.3008765 19.555283,8.1241826 19.237724,7.9743121 18.875045,7.8508392 18.511936,7.7269406 18.12906,7.6004874 17.724699,7.470628 17.320767,7.3535417 16.922421,7.2087804 16.530522,7.0376214 16.138192,6.8673141 15.787115,6.6493206 15.47858,6.3840668 15.169186,6.1192389 14.919521,5.7926744 14.729158,5.4039478 14.539224,5.0147954 14.444257,4.5323997 14.444257,3.9550577 c 0,-0.6241766 0.127625,-1.1593676 0.383306,-1.607276 0.25568,-0.4474827 0.588279,-0.8187528 0.998227,-1.1129588 0.410377,-0.2946318 0.87361,-0.50964488 1.390986,-0.64503925 0.517376,-0.13496861 1.036902,-0.20309156 1.559864,-0.20309156 0.736961,0 1.426653,0.12985938 2.068647,0.38830085 0.641564,0.25971876 1.158511,0.60714586 1.55084,1.04270696 z"
           id="Fill-11" />
        <path
           d="M 31.560437,3.0187928 C 31.310773,2.6773265 30.972158,2.3980224 30.544162,2.1796031 30.116596,1.9620354 29.634886,1.8530387 29.099891,1.8530387 c -0.285331,0 -0.573669,0.038319 -0.864586,0.1145317 -0.291347,0.077064 -0.555621,0.200537 -0.793683,0.3712702 -0.238062,0.1707331 -0.431004,0.3827658 -0.579685,0.6356723 -0.148252,0.253758 -0.222592,0.5564794 -0.222592,0.9098672 0,0.3418921 0.06832,0.6275827 0.204973,0.857072 0.13665,0.2294892 0.320997,0.4240654 0.553043,0.582877 0.231617,0.1588116 0.504915,0.294206 0.820326,0.4061831 0.314551,0.1124029 0.650158,0.2269346 1.006821,0.3448725 0.428426,0.1294336 0.861578,0.2767495 1.302036,0.4415219 0.439168,0.1651982 0.837943,0.3827659 1.194177,0.6535546 0.356663,0.2712145 0.648009,0.6097005 0.87361,1.0158836 0.22603,0.4061831 0.339044,0.9217888 0.339044,1.5459653 0,0.6475939 -0.122038,1.2096079 -0.365257,1.6864689 -0.244078,0.477712 -0.568083,0.871974 -0.972015,1.184062 -0.403931,0.312089 -0.870602,0.544984 -1.39958,0.697409 -0.528979,0.153277 -1.072998,0.229915 -1.631627,0.229915 -0.796261,0 -1.56588,-0.153277 -2.308857,-0.459404 -0.742977,-0.305702 -1.358328,-0.759571 -1.845624,-1.359905 l 1.373368,-1.148297 c 0.296933,0.435561 0.695278,0.788949 1.194606,1.059737 0.498899,0.271215 1.03991,0.406184 1.622173,0.406184 0.297363,0 0.594296,-0.0413 0.891658,-0.123473 0.296933,-0.08217 0.567653,-0.212033 0.811302,-0.388727 0.243648,-0.176694 0.442606,-0.397668 0.597303,-0.662496 0.154268,-0.264828 0.231616,-0.585857 0.231616,-0.9626622 0,-0.3768051 -0.08036,-0.691448 -0.24064,-0.945206 C 30.731088,8.6925835 30.514082,8.4775704 30.241213,8.3008765 29.967485,8.1241826 29.649926,7.9743121 29.287246,7.8508392 28.924138,7.7269406 28.541262,7.6004874 28.1369,7.470628 27.732968,7.3535417 27.334623,7.2087804 26.942723,7.0376214 26.550394,6.8673141 26.199317,6.6493206 25.890782,6.3840668 25.581387,6.1192389 25.331723,5.7926744 25.141359,5.4039478 24.951425,5.0147954 24.856458,4.5323997 24.856458,3.9550577 c 0,-0.6241766 0.127626,-1.1593676 0.383306,-1.607276 0.25568,-0.4474827 0.588279,-0.8187528 0.998227,-1.1129588 0.410378,-0.2946318 0.87361,-0.50964488 1.390987,-0.64503925 0.517376,-0.13496861 1.036901,-0.20309156 1.559864,-0.20309156 0.73696,0 1.426653,0.12985938 2.068646,0.38830085 0.641564,0.25971876 1.158511,0.60714586 1.550841,1.04270696 z"
           id="Fill-13" />
        <path
           d="m 46.51945,6.9409294 c 0,-0.6829326 -0.113015,-1.3279719 -0.338616,-1.9346919 -0.226029,-0.6062943 -0.547026,-1.1393565 -0.96299,-1.5987606 -0.415964,-0.4594042 -0.9183,-0.8217332 -1.50658,-1.0865612 -0.588279,-0.264828 -1.250899,-0.397242 -1.98786,-0.397242 -0.725358,0 -1.381962,0.132414 -1.970242,0.397242 -0.588279,0.264828 -1.087608,0.627157 -1.497555,1.0865612 -0.410378,0.4594041 -0.728796,0.9924663 -0.953967,1.5987606 -0.22646,0.60672 -0.339045,1.2517593 -0.339045,1.9346919 0,0.6948542 0.112585,1.3484088 0.339045,1.9606639 0.225171,0.6126808 0.546167,1.1457427 0.962561,1.5987607 0.415964,0.453869 0.915292,0.810237 1.497556,1.069105 0.582693,0.258867 1.236289,0.3883 1.961647,0.3883 0.724499,0 1.384541,-0.129433 1.978836,-0.3883 0.594296,-0.258868 1.09964,-0.615236 1.515604,-1.069105 0.415964,-0.453018 0.736961,-0.9860799 0.96299,-1.5987607 0.225601,-0.6122551 0.338616,-1.2658097 0.338616,-1.9606639 m 1.907503,0 c 0,0.9660687 -0.168878,1.8520929 -0.507923,2.6584984 -0.338615,0.8072572 -0.805285,1.5016852 -1.39958,2.0849882 -0.594725,0.582877 -1.301606,1.03632 -2.121502,1.359905 -0.820325,0.324009 -1.711983,0.486227 -2.674544,0.486227 -0.962991,0 -1.851641,-0.162218 -2.66552,-0.486227 C 38.243145,12.720736 37.539272,12.267293 36.944977,11.684416 36.350252,11.101113 35.88659,10.406685 35.55399,9.5994278 35.220962,8.7930223 35.054662,7.9069981 35.054662,6.9409294 c 0,-0.9775644 0.1663,-1.8699751 0.499328,-2.6763806 0.3326,-0.8068313 0.796262,-1.4957247 1.390987,-2.067106 0.594295,-0.5709555 1.298168,-1.0154578 2.112907,-1.33350683 0.813879,-0.31847482 1.702529,-0.47728646 2.66552,-0.47728646 0.962561,0 1.854219,0.15881164 2.674544,0.47728646 0.819896,0.31804903 1.526777,0.76255133 2.121502,1.33350683 0.594295,0.5713813 1.060965,1.2602747 1.39958,2.067106 0.339045,0.8064055 0.507923,1.6988162 0.507923,2.6763806"
           id="Fill-15" />
        <path
           d="m 61.924549,11.268909 c -0.499329,0.671436 -1.147338,1.215994 -1.94317,1.634099 -0.796691,0.418105 -1.754095,0.627583 -2.870924,0.627583 -0.962561,0 -1.85164,-0.162218 -2.66552,-0.486228 C 53.630626,12.720779 52.929332,12.267336 52.341052,11.684459 51.752773,11.101156 51.291689,10.406727 50.95909,9.5994704 50.626061,8.7930649 50.459761,7.9070407 50.459761,6.940972 c 0,-0.9775644 0.169738,-1.8699751 0.508353,-2.6763806 0.338615,-0.8068313 0.808293,-1.4957247 1.408605,-2.067106 0.600311,-0.5709555 1.310629,-1.0154578 2.130525,-1.33350685 0.819895,-0.31847482 1.711983,-0.47728646 2.674544,-0.47728646 0.427996,0 0.862008,0.0412995 1.301606,0.12347285 0.439598,0.0830249 0.861578,0.20649771 1.265939,0.37127012 0.403932,0.16477244 0.772197,0.36828974 1.105656,0.60927464 0.33217,0.2418365 0.6175,0.5215664 0.855562,0.8391897 L 60.319994,3.3900629 C 60.0106,2.9659975 59.57358,2.6155901 59.009364,2.3388406 58.444719,2.062091 57.835384,1.9237163 57.181788,1.9237163 c -0.736961,0 -1.399581,0.132414 -1.98786,0.397242 -0.58828,0.264828 -1.090616,0.6271569 -1.50658,1.0865611 -0.416393,0.4594042 -0.73739,0.9924663 -0.96299,1.5987606 -0.22603,0.6067201 -0.338616,1.2513336 -0.338616,1.934692 0,0.7063499 0.109578,1.3662911 0.329592,1.9781204 0.220013,0.6131066 0.534994,1.1457426 0.945372,1.5991866 0.409948,0.453443 0.909276,0.809811 1.497556,1.068679 0.588279,0.258867 1.244883,0.388726 1.970241,0.388726 0.712897,0 1.360907,-0.141355 1.94317,-0.424065 0.582263,-0.28271 1.063974,-0.694854 1.444271,-1.236432 z"
           id="Fill-17" />
        <polygon
           id="Fill-19"
           points="65.758033,13.212457 65.758033,0.70465598 63.992766,0.70465598 63.992766,13.212457 " />
        <path
           d="m 71.49915,8.6015968 h 4.724713 L 73.870746,2.736636 Z M 69.609265,13.212244 H 67.647618 L 73.121323,0.7044431 h 1.604985 l 5.419991,12.5078009 h -1.996455 l -1.283987,-3.074049 h -5.990652 z"
           id="Fill-21" />
        <polygon
           id="Fill-22"
           points="83.230963,11.65755 90.469936,11.65755 90.469936,13.212457 81.091413,13.212457 81.091413,11.675432 88.20534,2.2416802 81.234079,2.2416802 81.234079,0.70465598 90.362937,0.70465598 90.362937,2.2416802 " />
        <polygon
           id="Fill-23"
           points="94.624547,13.212457 94.624547,0.70465598 92.859279,0.70465598 92.859279,13.212457 " />
        <path
           d="m 108.78111,6.9409294 c 0,-0.6829326 -0.11302,-1.3279719 -0.33862,-1.9346919 -0.22602,-0.6062943 -0.54702,-1.1393565 -0.96299,-1.5987606 -0.41596,-0.4594042 -0.9183,-0.8217332 -1.50658,-1.0865612 -0.58827,-0.264828 -1.25089,-0.397242 -1.98786,-0.397242 -0.72535,0 -1.38196,0.132414 -1.97024,0.397242 -0.58828,0.264828 -1.0876,0.627157 -1.49755,1.0865612 -0.41038,0.4594041 -0.728799,0.9924663 -0.95397,1.5987606 -0.226459,0.60672 -0.339045,1.2517593 -0.339045,1.9346919 0,0.6948542 0.112586,1.3484088 0.339045,1.9606639 0.225171,0.6126808 0.54617,1.1457427 0.96256,1.5987607 0.41596,0.453869 0.91529,0.810237 1.49756,1.069105 0.58269,0.258867 1.23629,0.3883 1.96164,0.3883 0.7245,0 1.38455,-0.129433 1.97884,-0.3883 0.5943,-0.258868 1.09964,-0.615236 1.5156,-1.069105 0.41597,-0.453018 0.73697,-0.9860799 0.96299,-1.5987607 0.2256,-0.6122551 0.33862,-1.2658097 0.33862,-1.9606639 m 1.9075,0 c 0,0.9660687 -0.16888,1.8520929 -0.50792,2.6584984 -0.33862,0.8072572 -0.80528,1.5016852 -1.39958,2.0849882 -0.59472,0.582877 -1.30161,1.03632 -2.1215,1.359905 -0.82033,0.324009 -1.71198,0.486227 -2.67455,0.486227 -0.96299,0 -1.85164,-0.162218 -2.66552,-0.486227 -0.81473,-0.323585 -1.518607,-0.777028 -2.112903,-1.359905 C 98.611912,11.101113 98.14825,10.406685 97.815651,9.5994278 97.482622,8.7930223 97.316322,7.9069981 97.316322,6.9409294 c 0,-0.9775644 0.1663,-1.8699751 0.499329,-2.6763806 0.332599,-0.8068313 0.796261,-1.4957247 1.390986,-2.067106 0.594296,-0.5709555 1.298173,-1.0154578 2.112903,-1.33350683 0.81388,-0.31847482 1.70253,-0.47728646 2.66552,-0.47728646 0.96257,0 1.85422,0.15881164 2.67455,0.47728646 0.81989,0.31804903 1.52678,0.76255133 2.1215,1.33350683 0.5943,0.5713813 1.06096,1.2602747 1.39958,2.067106 0.33904,0.8064055 0.50792,1.6988162 0.50792,2.6763806"
           id="Fill-24" />
        <polygon
           id="Fill-25"
           points="122.29654,10.703829 122.29654,0.70465598 124.06138,0.70465598 124.06138,13.212457 121.83288,13.212457 115.16414,3.0012511 115.12847,3.0012511 115.12847,13.212457 113.36363,13.212457 113.36363,0.70465598 115.66346,0.70465598 122.26087,10.703829 " />
        <polygon
           id="Fill-26"
           points="135.75804,11.657678 135.75804,13.212158 127.39579,13.212158 127.39579,0.70435795 135.49033,0.70435795 135.49033,2.2418079 129.16063,2.2418079 129.16063,5.9868674 135.11561,5.9868674 135.11561,7.4885528 129.16063,7.4885528 129.16063,11.657678 " />
        <polygon
           id="Fill-27"
           points="8.7472287,28.604838 8.7472287,30.159319 1.3484014,30.159319 1.3484014,17.651519 3.1132396,17.651519 3.1132396,28.604838 " />
        <path
           d="m 14.667279,30.477539 c -0.832357,0 -1.557716,-0.138375 -2.175216,-0.415551 -0.618359,-0.276323 -1.12929,-0.644613 -1.533651,-1.103591 C 10.55448,28.498992 10.254109,27.971891 10.05773,27.377092 9.8617797,26.782294 9.7638047,26.167058 9.7638047,25.53096 v -7.879271 h 1.7652683 v 7.773255 c 0,0.424065 0.05328,0.84515 0.160283,1.263255 0.106999,0.418105 0.282752,0.791929 0.525971,1.121474 0.243648,0.329971 0.564215,0.595225 0.962991,0.795336 0.397915,0.200111 0.894236,0.300166 1.488961,0.300166 0.581834,0 1.075576,-0.100055 1.479507,-0.300166 0.404362,-0.200111 0.728367,-0.465365 0.972015,-0.795336 0.243219,-0.329545 0.418972,-0.703369 0.525971,-1.121474 0.106999,-0.418105 0.160284,-0.83919 0.160284,-1.263255 v -7.773255 h 1.765267 v 7.879271 c 0,0.636098 -0.09797,1.251334 -0.293925,1.846132 -0.196379,0.594799 -0.49675,1.1219 -0.900681,1.581305 -0.404362,0.458978 -0.915293,0.827268 -1.533222,1.103591 -0.61836,0.277176 -1.343288,0.415551 -2.175216,0.415551"
           id="Fill-28" />
        <path
           d="m 33.192021,28.216069 c -0.499329,0.671437 -1.147338,1.215995 -1.94317,1.6341 -0.796691,0.418104 -1.754095,0.627582 -2.870924,0.627582 -0.962561,0 -1.85164,-0.162217 -2.66552,-0.486227 -0.814309,-0.323584 -1.515603,-0.777028 -2.103883,-1.359905 -0.588279,-0.583303 -1.049363,-1.277731 -1.381962,-2.084988 -0.333029,-0.806405 -0.499329,-1.69243 -0.499329,-2.658498 0,-0.977565 0.169737,-1.869975 0.508353,-2.676381 0.338615,-0.806831 0.808293,-1.495725 1.408604,-2.067106 0.600312,-0.570955 1.31063,-1.015458 2.130526,-1.333507 0.819895,-0.318475 1.711983,-0.477286 2.674544,-0.477286 0.427996,0 0.862007,0.0413 1.301606,0.123473 0.439598,0.08302 0.861578,0.206497 1.265939,0.37127 0.403932,0.164772 0.772197,0.368289 1.105656,0.609274 0.332169,0.241837 0.6175,0.521567 0.855562,0.83919 l -1.390557,1.060164 c -0.309394,-0.424066 -0.746414,-0.774473 -1.31063,-1.051223 -0.564645,-0.276749 -1.17398,-0.415124 -1.827576,-0.415124 -0.736961,0 -1.399581,0.132414 -1.98786,0.397242 -0.58828,0.264828 -1.090616,0.627157 -1.50658,1.086561 -0.416393,0.459404 -0.73739,0.992466 -0.96299,1.598761 -0.22603,0.60672 -0.338616,1.251333 -0.338616,1.934692 0,0.70635 0.109578,1.366291 0.329592,1.97812 0.220013,0.613107 0.534994,1.145743 0.945372,1.599186 0.409948,0.453444 0.909276,0.809812 1.497555,1.068679 0.58828,0.258867 1.244884,0.388727 1.970242,0.388727 0.712897,0 1.360907,-0.141355 1.94317,-0.424065 0.582263,-0.282711 1.063974,-0.694855 1.444271,-1.236432 z"
           id="Fill-29" />
        <path
           d="m 37.007844,25.548757 h 4.724713 l -2.353118,-5.86496 z m -1.889885,4.610647 h -1.961218 l 5.473706,-12.5078 h 1.604554 l 5.420421,12.5078 h -1.996884 l -1.283987,-3.074048 h -5.990653 z"
           id="Fill-30" />
        <path
           d="m 61.880503,28.216069 c -0.499328,0.671437 -1.147338,1.215995 -1.94317,1.6341 -0.796691,0.418104 -1.754095,0.627582 -2.870923,0.627582 -0.962561,0 -1.851641,-0.162217 -2.665521,-0.486227 -0.814309,-0.323584 -1.515603,-0.777028 -2.103883,-1.359905 -0.588279,-0.583303 -1.049363,-1.277731 -1.381962,-2.084988 -0.333029,-0.806405 -0.499329,-1.69243 -0.499329,-2.658498 0,-0.977565 0.169738,-1.869975 0.508353,-2.676381 0.338615,-0.806831 0.808293,-1.495725 1.408605,-2.067106 0.600311,-0.570955 1.310629,-1.015458 2.130525,-1.333507 0.819896,-0.318475 1.711983,-0.477286 2.674544,-0.477286 0.427996,0 0.862008,0.0413 1.301606,0.123473 0.439598,0.08302 0.861578,0.206497 1.265939,0.37127 0.403932,0.164772 0.772198,0.368289 1.105656,0.609274 0.33217,0.241837 0.6175,0.521567 0.855562,0.83919 l -1.390557,1.060164 c -0.309394,-0.424066 -0.746414,-0.774473 -1.310629,-1.051223 -0.564645,-0.276749 -1.173981,-0.415124 -1.827577,-0.415124 -0.736961,0 -1.399581,0.132414 -1.98786,0.397242 -0.588279,0.264828 -1.090616,0.627157 -1.50658,1.086561 -0.416393,0.459404 -0.73739,0.992466 -0.96299,1.598761 -0.22603,0.60672 -0.338615,1.251333 -0.338615,1.934692 0,0.70635 0.109577,1.366291 0.329591,1.97812 0.220014,0.613107 0.534995,1.145743 0.945372,1.599186 0.409948,0.453444 0.909276,0.809812 1.497556,1.068679 0.588279,0.258867 1.244883,0.388727 1.970242,0.388727 0.712896,0 1.360906,-0.141355 1.943169,-0.424065 0.582264,-0.282711 1.063974,-0.694855 1.444271,-1.236432 z"
           id="Fill-31" />
        <path
           d="m 74.111859,23.88809 c 0,-0.682933 -0.113015,-1.327972 -0.338615,-1.934692 -0.22603,-0.606294 -0.547027,-1.139356 -0.962991,-1.598761 -0.415964,-0.459404 -0.9183,-0.821733 -1.50658,-1.086561 -0.588279,-0.264828 -1.250899,-0.397242 -1.98786,-0.397242 -0.725358,0 -1.381962,0.132414 -1.970242,0.397242 -0.588279,0.264828 -1.087607,0.627157 -1.497555,1.086561 -0.410378,0.459405 -0.728796,0.992467 -0.953967,1.598761 -0.226459,0.60672 -0.339045,1.251759 -0.339045,1.934692 0,0.694854 0.112586,1.348409 0.339045,1.960664 0.225171,0.612681 0.546168,1.145743 0.962561,1.598761 0.415964,0.453869 0.915292,0.810237 1.497556,1.069104 0.582693,0.258867 1.236289,0.388301 1.961647,0.388301 0.724499,0 1.384541,-0.129434 1.978836,-0.388301 0.594296,-0.258867 1.09964,-0.615235 1.515604,-1.069104 0.415964,-0.453018 0.736961,-0.98608 0.962991,-1.598761 0.2256,-0.612255 0.338615,-1.26581 0.338615,-1.960664 m 1.907503,0 c 0,0.966069 -0.168878,1.852093 -0.507923,2.658498 -0.338615,0.807257 -0.805285,1.501686 -1.39958,2.084989 -0.594725,0.582877 -1.301606,1.03632 -2.121502,1.359904 -0.820325,0.32401 -1.711983,0.486228 -2.674544,0.486228 -0.96299,0 -1.85164,-0.162218 -2.66552,-0.486228 -0.814739,-0.323584 -1.518612,-0.777027 -2.112907,-1.359904 -0.594725,-0.583303 -1.058387,-1.277732 -1.390986,-2.084989 -0.333029,-0.806405 -0.499329,-1.692429 -0.499329,-2.658498 0,-0.977564 0.1663,-1.869975 0.499329,-2.67638 0.332599,-0.806832 0.796261,-1.495725 1.390986,-2.067107 0.594295,-0.570955 1.298168,-1.015457 2.112907,-1.333506 0.81388,-0.318475 1.70253,-0.477287 2.66552,-0.477287 0.962561,0 1.854219,0.158812 2.674544,0.477287 0.819896,0.318049 1.526777,0.762551 2.121502,1.333506 0.594295,0.571382 1.060965,1.260275 1.39958,2.067107 0.339045,0.806405 0.507923,1.698816 0.507923,2.67638"
           id="Fill-32" />
        <path
           d="m 84.524877,19.965953 c -0.249665,-0.341466 -0.58871,-0.62077 -1.016276,-0.839189 -0.427995,-0.217568 -0.909276,-0.326565 -1.4447,-0.326565 -0.285331,0 -0.573669,0.03832 -0.864157,0.114532 -0.291776,0.07706 -0.55605,0.200537 -0.793683,0.37127 -0.238062,0.170733 -0.431003,0.382766 -0.579685,0.635673 -0.148681,0.253758 -0.222592,0.556479 -0.222592,0.909867 0,0.341892 0.06789,0.627582 0.204544,0.857072 0.137079,0.229489 0.320997,0.424065 0.553473,0.582877 0.231616,0.158811 0.504485,0.294206 0.819895,0.406183 0.314552,0.112403 0.650588,0.226934 1.007252,0.344872 0.427995,0.129434 0.861578,0.27675 1.301605,0.441522 0.439598,0.165198 0.837944,0.382766 1.194607,0.653555 0.356663,0.271214 0.64758,0.6097 0.87361,1.015883 0.22603,0.406184 0.338615,0.921789 0.338615,1.545966 0,0.647594 -0.122039,1.209608 -0.365257,1.686469 -0.244078,0.477712 -0.568083,0.871974 -0.971585,1.184062 -0.404362,0.312088 -0.871032,0.544983 -1.40001,0.697409 -0.528549,0.153276 -1.072568,0.229915 -1.631197,0.229915 -0.796262,0 -1.56631,-0.153277 -2.309287,-0.459405 -0.742547,-0.305701 -1.357898,-0.759571 -1.845195,-1.359904 l 1.372939,-1.148298 c 0.296932,0.435561 0.695278,0.788949 1.194606,1.059738 0.499329,0.271215 1.03991,0.406183 1.622603,0.406183 0.296933,0 0.594295,-0.0413 0.891658,-0.123473 0.296933,-0.08217 0.567223,-0.212032 0.810872,-0.388726 0.243648,-0.176694 0.442606,-0.397668 0.597733,-0.662496 0.153837,-0.264828 0.231616,-0.585857 0.231616,-0.962663 0,-0.376805 -0.08036,-0.691448 -0.24107,-0.945206 -0.160284,-0.253332 -0.37729,-0.468345 -0.650588,-0.645039 -0.273299,-0.176694 -0.591288,-0.326564 -0.953967,-0.450037 -0.362679,-0.123899 -0.745984,-0.250352 -1.149916,-0.380211 -0.403932,-0.117087 -0.802277,-0.261848 -1.194607,-0.433007 -0.39233,-0.170307 -0.742977,-0.388301 -1.051941,-0.653555 -0.309395,-0.264828 -0.55863,-0.591392 -0.748993,-0.980119 -0.190364,-0.389152 -0.285331,-0.871548 -0.285331,-1.44889 0,-0.624176 0.127625,-1.159367 0.383735,-1.607276 0.255251,-0.447482 0.58828,-0.818752 0.998228,-1.112958 0.409947,-0.294632 0.87361,-0.509645 1.390986,-0.64504 0.516947,-0.134968 1.036902,-0.203091 1.559864,-0.203091 0.736961,0 1.426653,0.129859 2.068217,0.388301 0.641994,0.259718 1.15894,0.607145 1.55127,1.042707 z"
           id="Fill-33" />
        <path
           d="m 99.037802,28.216069 c -0.499328,0.671437 -1.147338,1.215995 -1.943169,1.6341 -0.796692,0.418104 -1.754096,0.627582 -2.870924,0.627582 -0.962561,0 -1.851641,-0.162217 -2.66552,-0.486227 -0.81431,-0.323584 -1.515604,-0.777028 -2.103883,-1.359905 -0.58828,-0.583303 -1.049364,-1.277731 -1.381963,-2.084988 -0.333029,-0.806405 -0.499328,-1.69243 -0.499328,-2.658498 0,-0.977565 0.169737,-1.869975 0.508352,-2.676381 0.338615,-0.806831 0.808294,-1.495725 1.408605,-2.067106 0.600311,-0.570955 1.31063,-1.015458 2.130525,-1.333507 0.819896,-0.318475 1.711984,-0.477286 2.674544,-0.477286 0.427996,0 0.862008,0.0413 1.301606,0.123473 0.439598,0.08302 0.861578,0.206497 1.26594,0.37127 0.403931,0.164772 0.772197,0.368289 1.105655,0.609274 0.33217,0.241837 0.6175,0.521567 0.855562,0.83919 l -1.390556,1.060164 c -0.309395,-0.424066 -0.746415,-0.774473 -1.31063,-1.051223 -0.564645,-0.276749 -1.173981,-0.415124 -1.827577,-0.415124 -0.73696,0 -1.39958,0.132414 -1.98786,0.397242 -0.588279,0.264828 -1.090616,0.627157 -1.506579,1.086561 -0.416394,0.459404 -0.737391,0.992466 -0.962991,1.598761 -0.22603,0.60672 -0.338615,1.251333 -0.338615,1.934692 0,0.70635 0.109577,1.366291 0.329591,1.97812 0.220014,0.613107 0.534995,1.145743 0.945372,1.599186 0.409948,0.453444 0.909277,0.809812 1.497556,1.068679 0.588279,0.258867 1.244883,0.388727 1.970242,0.388727 0.712896,0 1.360906,-0.141355 1.94317,-0.424065 0.582263,-0.282711 1.063973,-0.694855 1.444271,-1.236432 z"
           id="Fill-34" />
        <polygon
           id="Fill-35"
           points="102.42559,30.159319 102.42559,17.651519 100.66032,17.651519 100.66032,30.159319 " />
        <path
           d="m 116.13658,23.88809 c 0,-0.682933 -0.11345,-1.327972 -0.33905,-1.934692 -0.2256,-0.606294 -0.54659,-1.139356 -0.96256,-1.598761 -0.41639,-0.459404 -0.9183,-0.821733 -1.50658,-1.086561 -0.58828,-0.264828 -1.25133,-0.397242 -1.98829,-0.397242 -0.72535,0 -1.38196,0.132414 -1.97024,0.397242 -0.58828,0.264828 -1.08718,0.627157 -1.49755,1.086561 -0.41038,0.459405 -0.72837,0.992467 -0.95397,1.598761 -0.22603,0.60672 -0.33862,1.251759 -0.33862,1.934692 0,0.694854 0.11259,1.348409 0.33862,1.960664 0.2256,0.612681 0.5466,1.145743 0.96299,1.598761 0.41596,0.453869 0.91486,0.810237 1.49756,1.069104 0.58226,0.258867 1.23586,0.388301 1.96121,0.388301 0.72493,0 1.38497,-0.129434 1.97884,-0.388301 0.5943,-0.258867 1.09964,-0.615235 1.51603,-1.069104 0.41597,-0.453018 0.73696,-0.98608 0.96256,-1.598761 0.2256,-0.612255 0.33905,-1.26581 0.33905,-1.960664 m 1.9075,0 c 0,0.966069 -0.1693,1.852093 -0.50749,2.658498 -0.33904,0.807257 -0.80572,1.501686 -1.40001,2.084989 -0.5943,0.582877 -1.30161,1.03632 -2.12193,1.359904 -0.82033,0.32401 -1.71156,0.486228 -2.67455,0.486228 -0.96256,0 -1.85164,-0.162218 -2.66552,-0.486228 -0.81431,-0.323584 -1.51861,-0.777027 -2.1129,-1.359904 -0.5943,-0.583303 -1.05796,-1.277732 -1.39099,-2.084989 -0.3326,-0.806405 -0.4989,-1.692429 -0.4989,-2.658498 0,-0.977564 0.1663,-1.869975 0.4989,-2.67638 0.33303,-0.806832 0.79669,-1.495725 1.39099,-2.067107 0.59429,-0.570955 1.29859,-1.015457 2.1129,-1.333506 0.81388,-0.318475 1.70296,-0.477287 2.66552,-0.477287 0.96299,0 1.85422,0.158812 2.67455,0.477287 0.82032,0.318049 1.52763,0.762551 2.12193,1.333506 0.59429,0.571382 1.06097,1.260275 1.40001,2.067107 0.33819,0.806405 0.50749,1.698816 0.50749,2.67638"
           id="Fill-36" />
        <polygon
           id="Fill-37"
           points="129.20553,27.650989 129.20553,17.651817 130.97037,17.651817 130.97037,30.159617 128.74187,30.159617 122.07313,19.948412 122.03746,19.948412 122.03746,30.159617 120.27263,30.159617 120.27263,17.651817 122.57246,17.651817 129.16987,27.650989 " />
        <polygon
           id="Fill-38"
           points="135.62362,30.159319 135.62362,17.651519 133.85879,17.651519 133.85879,30.159319 " />
        <path
           d="m 3.8770145,37.165127 c 0,-0.329971 -0.079497,-0.570956 -0.238062,-0.721252 C 3.4803878,36.293153 3.2779922,36.217792 3.031336,36.217792 H 2.4323137 V 38.17292 H 3.031336 c 0.2466562,0 0.4490518,-0.08515 0.6076165,-0.255886 0.1585647,-0.171159 0.238062,-0.421937 0.238062,-0.751907 m 0.9952191,-0.0132 c 0,0.314217 -0.048128,0.589263 -0.1448138,0.824713 -0.096256,0.235876 -0.2234516,0.432155 -0.3815866,0.589264 -0.1577053,0.157108 -0.3394746,0.273769 -0.5444485,0.348704 -0.2045442,0.07579 -0.4155341,0.11368 -0.6316806,0.11368 H 2.4323137 v 2.478825 H 1.3928339 v -6.179178 h 1.7222964 c 0.1989579,0 0.4043616,0.02895 0.6149217,0.08728 0.2109899,0.0579 0.4000644,0.158386 0.5667937,0.301018 0.1667293,0.142633 0.3046677,0.329971 0.4129558,0.562866 0.1082881,0.232896 0.1624321,0.52327 0.1624321,0.872826"
           id="Fill-39" />
        <polygon
           id="Fill-40"
           points="5.9030332,35.327595 8.6957489,35.327595 8.6957489,36.25279 6.9158707,36.25279 6.9158707,37.893702 8.5633968,37.893702 8.5633968,38.74907 6.9158707,38.74907 6.9158707,40.573488 8.7838404,40.573488 8.7838404,41.507199 5.9030332,41.507199 " />
        <path
           d="m 12.404144,37.143072 c 0,-0.186061 -0.02664,-0.340615 -0.0795,-0.462811 -0.05285,-0.121769 -0.121609,-0.217993 -0.206692,-0.287819 -0.08508,-0.06983 -0.180481,-0.119215 -0.28619,-0.148167 -0.10571,-0.02938 -0.21142,-0.04386 -0.31713,-0.04386 h -0.599452 v 1.90276 h 0.599452 c 0.258259,0 0.470968,-0.08004 0.638556,-0.240134 0.167589,-0.160089 0.250954,-0.399796 0.250954,-0.719974 z m 0.07047,4.364127 -0.969007,-2.635933 h -0.590428 v 2.635933 H 9.8933207 v -6.179604 h 1.7798783 c 0.257829,0 0.495891,0.03321 0.713326,0.100481 0.217436,0.06685 0.403502,0.173288 0.559489,0.318475 0.155556,0.145613 0.277166,0.328693 0.365257,0.550093 0.08809,0.220974 0.132352,0.485376 0.132352,0.794058 0,0.238431 -0.03051,0.449612 -0.09239,0.632692 -0.06145,0.183506 -0.139657,0.338912 -0.233765,0.467068 -0.09411,0.128156 -0.198098,0.231193 -0.312403,0.30996 -0.114733,0.07834 -0.227748,0.132414 -0.339045,0.161366 l 1.118548,2.845411 z"
           id="Fill-41" />
        <polygon
           id="Fill-42"
           points="16.428937,35.327595 17.49463,35.327595 17.49463,40.538575 19.213059,40.538575 19.213059,41.507199 16.428937,41.507199 " />
        <path
           d="m 21.653064,36.313973 h -0.03524 l -0.67809,3.063404 h 1.373798 z m 1.101359,5.193098 -0.308535,-1.309238 h -1.638502 l -0.31713,1.309238 h -1.057098 l 1.550411,-6.179178 h 1.347585 l 1.524198,6.179178 z"
           id="Fill-43" />
        <polygon
           id="Fill-44"
           points="26.365659,35.327595 27.431352,35.327595 27.431352,40.538575 29.149781,40.538575 29.149781,41.507199 26.365659,41.507199 " />
        <polygon
           id="Fill-45"
           points="31.043533,41.507326 31.043533,35.327723 29.986435,35.327723 29.986435,41.507326 " />
        <path
           d="m 35.051869,39.69185 c 0,-0.180526 -0.02922,-0.332951 -0.08766,-0.458127 -0.05844,-0.125176 -0.134501,-0.226935 -0.227749,-0.305702 -0.09325,-0.07877 -0.19552,-0.135394 -0.306386,-0.169882 -0.111296,-0.03491 -0.222163,-0.05237 -0.333459,-0.05237 h -0.639415 v 1.928731 h 0.666057 c 0.128485,0 0.248376,-0.01873 0.359242,-0.05705 0.110866,-0.03789 0.208411,-0.09622 0.293065,-0.174139 0.08508,-0.07877 0.152119,-0.176269 0.201966,-0.292929 0.04942,-0.116235 0.07434,-0.255461 0.07434,-0.41853 m -0.149971,-2.644874 c 0,-0.157109 -0.02449,-0.289523 -0.07391,-0.397242 -0.04985,-0.107294 -0.114304,-0.195002 -0.192941,-0.261848 -0.07864,-0.06685 -0.170597,-0.114531 -0.275448,-0.143909 -0.10528,-0.02895 -0.213138,-0.04343 -0.324434,-0.04343 h -0.577966 v 1.719253 h 0.595584 c 0.10528,0 0.208842,-0.01575 0.310684,-0.04769 0.102272,-0.03236 0.192942,-0.08345 0.27158,-0.153277 0.07864,-0.0694 0.143095,-0.159663 0.192941,-0.270363 0.04942,-0.110274 0.07391,-0.244391 0.07391,-0.401499 m 1.162808,2.732156 c 0,0.326139 -0.05457,0.597779 -0.162432,0.815772 -0.108718,0.21842 -0.247086,0.395965 -0.414245,0.532637 -0.167589,0.136672 -0.355804,0.234172 -0.563785,0.292503 -0.208412,0.0579 -0.412956,0.08728 -0.612344,0.08728 h -1.849922 v -6.179603 h 1.656121 c 0.181769,0 0.375571,0.02171 0.581404,0.06514 0.205404,0.04385 0.393619,0.122196 0.563786,0.235876 0.170596,0.11368 0.311113,0.270789 0.422839,0.4709 0.111296,0.200963 0.167159,0.461533 0.167159,0.781285 0,0.384469 -0.08208,0.68719 -0.246656,0.907739 -0.164152,0.221399 -0.354945,0.375527 -0.57238,0.46281 v 0.01746 c 0.117312,0.02938 0.236343,0.07877 0.356663,0.148593 0.12032,0.06983 0.230327,0.166902 0.33045,0.292078 0.09969,0.125176 0.18177,0.276749 0.246657,0.454295 0.06446,0.177545 0.09669,0.38234 0.09669,0.615235"
           id="Fill-46" />
        <polygon
           id="Fill-47"
           points="37.18364,35.327595 39.976356,35.327595 39.976356,36.25279 38.196478,36.25279 38.196478,37.893702 39.844004,37.893702 39.844004,38.74907 38.196478,38.74907 38.196478,40.573488 40.064448,40.573488 40.064448,41.507199 37.18364,41.507199 " />
        <path
           d="m 43.684751,37.143072 c 0,-0.186061 -0.02664,-0.340615 -0.0795,-0.462811 -0.05286,-0.121769 -0.12161,-0.217993 -0.206693,-0.287819 -0.08508,-0.06983 -0.18048,-0.119215 -0.28619,-0.148167 -0.10571,-0.02938 -0.21142,-0.04386 -0.31713,-0.04386 h -0.599452 v 1.90276 h 0.599452 c 0.258259,0 0.470968,-0.08004 0.638556,-0.240134 0.167589,-0.160089 0.250954,-0.399796 0.250954,-0.719974 z m 0.07047,4.364127 -0.969007,-2.635933 h -0.590428 v 2.635933 h -1.021861 v -6.179604 h 1.779878 c 0.257829,0 0.495891,0.03321 0.713326,0.100481 0.217436,0.06685 0.403503,0.173288 0.559489,0.318475 0.155557,0.145613 0.277166,0.328693 0.365257,0.550093 0.08809,0.220974 0.132353,0.485376 0.132353,0.794058 0,0.238431 -0.03051,0.449612 -0.09239,0.632692 -0.06145,0.183506 -0.139657,0.338912 -0.233765,0.467068 -0.09411,0.128156 -0.198098,0.231193 -0.312402,0.30996 -0.114734,0.07834 -0.227749,0.132414 -0.339045,0.161366 l 1.118547,2.845411 z"
           id="Fill-48" />
        <polygon
           id="Fill-49"
           points="47.34867,41.507241 46.30919,41.507241 46.30919,36.217919 45.137358,36.217919 45.137358,35.327638 48.520502,35.327638 48.520502,36.217919 47.34867,36.217919 " />
        <path
           d="m 50.731857,36.313973 h -0.03524 l -0.67809,3.063404 h 1.373798 z m -0.167589,-1.475288 -0.959983,-1.256868 h 0.916152 l 0.792824,1.256868 z m 1.268947,6.668386 -0.308535,-1.309238 h -1.638502 l -0.317129,1.309238 h -1.057098 l 1.55041,-6.179178 h 1.347585 l 1.524198,6.179178 z"
           id="Fill-50" />
        <path
           d="m 58.395775,38.42621 c 0,-0.366587 -0.03395,-0.686339 -0.101413,-0.960108 -0.0679,-0.273343 -0.162862,-0.500703 -0.28619,-0.680803 -0.123328,-0.180101 -0.27029,-0.315921 -0.440887,-0.406184 -0.170167,-0.09026 -0.354944,-0.134968 -0.554762,-0.134968 h -0.502336 v 4.34667 h 0.502336 c 0.199818,0 0.384595,-0.04471 0.554762,-0.135394 0.170597,-0.08984 0.317559,-0.225658 0.440887,-0.405758 0.123328,-0.1801 0.218295,-0.406183 0.28619,-0.676546 0.06746,-0.270363 0.101413,-0.585857 0.101413,-0.946909 m 1.057098,0 c 0,0.977565 -0.207123,1.735432 -0.620938,2.273604 -0.414245,0.538171 -1.02358,0.807257 -1.828006,0.807257 h -1.559435 v -6.179178 h 1.568029 c 0.79884,0 1.405167,0.27164 1.819412,0.815772 0.413815,0.544133 0.620938,1.304981 0.620938,2.282545"
           id="Fill-51" />
        <polygon
           id="Fill-52"
           points="61.663712,41.507326 61.663712,35.327723 60.606614,35.327723 60.606614,41.507326 " />
        <path
           d="m 67.46009,37.143072 c 0,-0.186061 -0.02664,-0.340615 -0.0795,-0.462811 -0.05286,-0.121769 -0.121609,-0.217993 -0.206693,-0.287819 -0.08508,-0.06983 -0.18048,-0.119215 -0.28619,-0.148167 -0.105709,-0.02938 -0.211419,-0.04386 -0.317129,-0.04386 h -0.599452 v 1.90276 h 0.599452 c 0.258258,0 0.470967,-0.08004 0.638556,-0.240134 0.167589,-0.160089 0.250953,-0.399796 0.250953,-0.719974 z m 0.07047,4.364127 -0.969007,-2.635933 h -0.590428 v 2.635933 h -1.021861 v -6.179604 h 1.779878 c 0.257829,0 0.49589,0.03321 0.713326,0.100481 0.217436,0.06685 0.403502,0.173288 0.559489,0.318475 0.155556,0.145613 0.277166,0.328693 0.365257,0.550093 0.08809,0.220974 0.132352,0.485376 0.132352,0.794058 0,0.238431 -0.03051,0.449612 -0.09239,0.632692 -0.06145,0.183506 -0.139657,0.338912 -0.233764,0.467068 -0.09411,0.128156 -0.198099,0.231193 -0.312403,0.30996 -0.114734,0.07834 -0.227749,0.132414 -0.339045,0.161366 l 1.118548,2.845411 z"
           id="Fill-53" />
        <polygon
           id="Fill-54"
           points="70.674399,41.507326 70.674399,35.327723 69.617301,35.327723 69.617301,41.507326 " />
        <path
           d="m 75.083744,41.43733 c -0.25568,0.151148 -0.577106,0.226935 -0.964279,0.226935 -0.352366,0 -0.671215,-0.08132 -0.956116,-0.244391 -0.2849,-0.16307 -0.525541,-0.388301 -0.72192,-0.676547 -0.19681,-0.288245 -0.349788,-0.629711 -0.458506,-1.02525 -0.108718,-0.395965 -0.162862,-0.829397 -0.162862,-1.300723 0,-0.471326 0.05414,-0.906461 0.162862,-1.304554 0.108718,-0.398946 0.262986,-0.742115 0.462373,-1.03036 0.199818,-0.28782 0.442177,-0.511774 0.727078,-0.671863 0.2849,-0.160089 0.600311,-0.240133 0.947091,-0.240133 0.357952,0 0.672073,0.06557 0.942364,0.196279 0.269861,0.131137 0.490304,0.318475 0.660471,0.562866 l -0.607616,0.733173 c -0.24064,-0.343169 -0.552184,-0.514754 -0.9342,-0.514754 -0.21099,0 -0.395767,0.06003 -0.554762,0.178823 -0.158564,0.119215 -0.290487,0.281007 -0.396197,0.484524 -0.106139,0.203518 -0.184777,0.444077 -0.237632,0.719975 -0.05286,0.276749 -0.0795,0.571807 -0.0795,0.886024 0,0.308682 0.02664,0.600759 0.0795,0.877509 0.05285,0.275898 0.131493,0.516457 0.237632,0.719549 0.10571,0.203943 0.238922,0.365735 0.400495,0.484524 0.161572,0.119216 0.351506,0.179249 0.568082,0.179249 0.205834,0 0.383736,-0.05237 0.533276,-0.157109 0.149541,-0.104739 0.274158,-0.232895 0.374711,-0.384469 l 0.607617,0.707202 c -0.164581,0.244391 -0.374281,0.442373 -0.629962,0.593521"
           id="Fill-55" />
        <polygon
           id="Fill-56"
           points="76.612068,35.327595 79.404783,35.327595 79.404783,36.25279 77.624905,36.25279 77.624905,37.893702 79.272431,37.893702 79.272431,38.74907 77.624905,38.74907 77.624905,40.573488 79.492875,40.573488 79.492875,41.507199 76.612068,41.507199 " />
        <path
           d="m 83.113178,37.143072 c 0,-0.186061 -0.02664,-0.340615 -0.0795,-0.462811 -0.05286,-0.121769 -0.12161,-0.217993 -0.206693,-0.287819 -0.08508,-0.06983 -0.18048,-0.119215 -0.28619,-0.148167 -0.10571,-0.02938 -0.21142,-0.04386 -0.317129,-0.04386 h -0.599452 v 1.90276 h 0.599452 c 0.258258,0 0.470967,-0.08004 0.638556,-0.240134 0.167588,-0.160089 0.250953,-0.399796 0.250953,-0.719974 z m 0.07047,4.364127 -0.969006,-2.635933 h -0.590428 v 2.635933 h -1.021862 v -6.179604 h 1.779878 c 0.257829,0 0.495891,0.03321 0.713327,0.100481 0.217435,0.06685 0.403502,0.173288 0.559488,0.318475 0.155557,0.145613 0.277166,0.328693 0.365258,0.550093 0.08809,0.220974 0.132352,0.485376 0.132352,0.794058 0,0.238431 -0.03051,0.449612 -0.09239,0.632692 -0.06145,0.183506 -0.139657,0.338912 -0.233765,0.467068 -0.09411,0.128156 -0.198098,0.231193 -0.312402,0.30996 -0.114734,0.07834 -0.227749,0.132414 -0.339045,0.161366 l 1.118547,2.845411 z"
           id="Fill-57" />
        <path
           d="m 88.261804,41.43733 c -0.25568,0.151148 -0.577107,0.226935 -0.964279,0.226935 -0.352366,0 -0.671215,-0.08132 -0.956116,-0.244391 -0.2849,-0.16307 -0.525541,-0.388301 -0.72192,-0.676547 -0.19681,-0.288245 -0.349788,-0.629711 -0.458506,-1.02525 -0.108718,-0.395965 -0.162862,-0.829397 -0.162862,-1.300723 0,-0.471326 0.05414,-0.906461 0.162862,-1.304554 0.108718,-0.398946 0.262986,-0.742115 0.462373,-1.03036 0.199818,-0.28782 0.442177,-0.511774 0.727077,-0.671863 0.284901,-0.160089 0.600312,-0.240133 0.947092,-0.240133 0.357952,0 0.672073,0.06557 0.942364,0.196279 0.269861,0.131137 0.490304,0.318475 0.660471,0.562866 l -0.607616,0.733173 c -0.24064,-0.343169 -0.552184,-0.514754 -0.9342,-0.514754 -0.21099,0 -0.395767,0.06003 -0.554762,0.178823 -0.158564,0.119215 -0.290487,0.281007 -0.396197,0.484524 -0.106139,0.203518 -0.184777,0.444077 -0.237632,0.719975 -0.05286,0.276749 -0.0795,0.571807 -0.0795,0.886024 0,0.308682 0.02664,0.600759 0.0795,0.877509 0.05285,0.275898 0.131493,0.516457 0.237632,0.719549 0.10571,0.203943 0.238922,0.365735 0.400495,0.484524 0.161572,0.119216 0.351506,0.179249 0.568082,0.179249 0.205834,0 0.383736,-0.05237 0.533276,-0.157109 0.149541,-0.104739 0.274158,-0.232895 0.374711,-0.384469 l 0.607617,0.707202 c -0.164581,0.244391 -0.374281,0.442373 -0.629962,0.593521"
           id="Fill-58" />
        <path
           d="m 91.287855,36.313973 h -0.03524 l -0.678089,3.063404 h 1.373798 z m 1.101359,5.193098 -0.308535,-1.309238 h -1.638502 l -0.31713,1.309238 h -1.057098 l 1.550411,-6.179178 h 1.347585 l 1.524198,6.179178 z"
           id="Fill-59" />
        <path
           d="m 98.44948,36.523536 c -0.229038,-0.273769 -0.516947,-0.410441 -0.863297,-0.410441 -0.09969,0 -0.196809,0.01618 -0.290917,0.04769 -0.09368,0.03236 -0.179191,0.08345 -0.25525,0.153277 -0.07649,0.06983 -0.136649,0.160089 -0.18048,0.270789 -0.04426,0.110274 -0.06618,0.240985 -0.06618,0.392132 0,0.262274 0.0795,0.464088 0.237633,0.606721 0.158564,0.142632 0.367406,0.278452 0.625664,0.405757 0.152979,0.07579 0.308536,0.163069 0.466671,0.262273 0.158564,0.09878 0.302519,0.217994 0.431863,0.357646 0.129344,0.140078 0.235054,0.305276 0.317129,0.497297 0.0825,0.192448 0.123328,0.419382 0.123328,0.68123 0,0.302296 -0.04856,0.570104 -0.145243,0.802999 -0.09712,0.232896 -0.22646,0.429175 -0.387603,0.589264 -0.161573,0.160089 -0.351077,0.280581 -0.568083,0.361903 -0.217435,0.08175 -0.446473,0.122196 -0.687543,0.122196 -0.34635,0 -0.666058,-0.06685 -0.959983,-0.200537 -0.293925,-0.134117 -0.528119,-0.302296 -0.704732,-0.506239 l 0.57238,-0.768512 c 0.13536,0.163069 0.298222,0.291225 0.489015,0.384469 0.190794,0.09282 0.386314,0.139652 0.585701,0.139652 0.223452,0 0.408659,-0.07579 0.555192,-0.226935 0.146532,-0.151573 0.220444,-0.364032 0.220444,-0.636949 0,-0.267809 -0.08809,-0.480267 -0.264275,-0.637802 -0.176183,-0.157108 -0.399635,-0.301869 -0.669925,-0.435987 -0.170167,-0.08132 -0.330021,-0.171584 -0.479992,-0.270788 -0.14954,-0.09878 -0.281463,-0.216291 -0.396197,-0.353388 -0.114304,-0.136672 -0.205403,-0.296761 -0.273298,-0.480267 -0.06746,-0.18308 -0.100983,-0.402777 -0.100983,-0.659089 0,-0.319753 0.05114,-0.594799 0.153838,-0.824714 0.103131,-0.229489 0.238062,-0.420234 0.405651,-0.571807 0.166729,-0.150722 0.356663,-0.263125 0.568082,-0.335932 0.21099,-0.07281 0.425418,-0.108996 0.642853,-0.108996 0.31713,0 0.600742,0.05067 0.850406,0.152851 0.249234,0.101758 0.459365,0.251629 0.629962,0.449185 z"
           id="Fill-60" />
        <path
           d="m 103.0962,41.43733 c -0.25568,0.151148 -0.57711,0.226935 -0.96428,0.226935 -0.35237,0 -0.67121,-0.08132 -0.95612,-0.244391 -0.2849,-0.16307 -0.52554,-0.388301 -0.72192,-0.676547 -0.1968,-0.288245 -0.34978,-0.629711 -0.458502,-1.02525 -0.108717,-0.395965 -0.162861,-0.829397 -0.162861,-1.300723 0,-0.471326 0.05414,-0.906461 0.162861,-1.304554 0.108722,-0.398946 0.262982,-0.742115 0.462372,-1.03036 0.19982,-0.28782 0.44218,-0.511774 0.72708,-0.671863 0.2849,-0.160089 0.60031,-0.240133 0.94709,-0.240133 0.35795,0 0.67207,0.06557 0.94236,0.196279 0.26986,0.131137 0.49031,0.318475 0.66048,0.562866 l -0.60762,0.733173 c -0.24064,-0.343169 -0.55218,-0.514754 -0.9342,-0.514754 -0.21099,0 -0.39577,0.06003 -0.55476,0.178823 -0.15857,0.119215 -0.29049,0.281007 -0.3962,0.484524 -0.10614,0.203518 -0.18478,0.444077 -0.23763,0.719975 -0.0529,0.276749 -0.0795,0.571807 -0.0795,0.886024 0,0.308682 0.0266,0.600759 0.0795,0.877509 0.0528,0.275898 0.13149,0.516457 0.23763,0.719549 0.10571,0.203943 0.23892,0.365735 0.4005,0.484524 0.16157,0.119216 0.3515,0.179249 0.56808,0.179249 0.20583,0 0.38373,-0.05237 0.53327,-0.157109 0.14954,-0.104739 0.27416,-0.232895 0.37471,-0.384469 l 0.60762,0.707202 c -0.16458,0.244391 -0.37428,0.442373 -0.62996,0.593521"
           id="Fill-61" />
        <polygon
           id="Fill-62"
           points="105.68153,41.507326 105.68153,35.327723 104.62444,35.327723 104.62444,41.507326 " />
        <polygon
           id="Fill-63"
           points="107.09998,35.327595 109.8927,35.327595 109.8927,36.25279 108.11282,36.25279 108.11282,37.893702 109.76034,37.893702 109.76034,38.74907 108.11282,38.74907 108.11282,40.573488 109.98079,40.573488 109.98079,41.507199 107.09998,41.507199 " />
        <polygon
           id="Fill-64"
           points="112.05098,37.143072 112.02434,37.143072 112.04196,41.507199 111.09057,41.507199 111.09057,35.327595 112.29721,35.327595 114.05044,39.71812 114.07708,39.71812 114.06806,35.327595 114.98421,35.327595 114.98421,41.507199 113.8214,41.507199 " />
        <polygon
           id="Fill-65"
           points="117.96162,41.507241 116.92214,41.507241 116.92214,36.217919 115.75031,36.217919 115.75031,35.327638 119.13345,35.327638 119.13345,36.217919 117.96162,36.217919 " />
        <polygon
           id="Fill-66"
           points="120.9566,41.507326 120.9566,35.327723 119.8995,35.327723 119.8995,41.507326 " />
        <polygon
           id="Fill-67"
           points="123.4321,37.963613 125.03537,37.963613 125.03537,38.853469 123.44113,38.853469 123.44113,41.507284 122.37501,41.507284 122.37501,35.32768 125.16772,35.32768 125.16772,36.270331 123.4321,36.270331 " />
        <polygon
           id="Fill-68"
           points="127.2545,41.507326 127.2545,35.327723 126.1974,35.327723 126.1974,41.507326 " />
        <path
           d="m 131.6638,41.43733 c -0.25568,0.151148 -0.5771,0.226935 -0.96428,0.226935 -0.35236,0 -0.67121,-0.08132 -0.95611,-0.244391 -0.2849,-0.16307 -0.52554,-0.388301 -0.72192,-0.676547 -0.19681,-0.288245 -0.34979,-0.629711 -0.45851,-1.02525 -0.10872,-0.395965 -0.16286,-0.829397 -0.16286,-1.300723 0,-0.471326 0.0541,-0.906461 0.16286,-1.304554 0.10872,-0.398946 0.26299,-0.742115 0.46237,-1.03036 0.19982,-0.28782 0.44218,-0.511774 0.72708,-0.671863 0.2849,-0.160089 0.60031,-0.240133 0.94709,-0.240133 0.35796,0 0.67208,0.06557 0.94237,0.196279 0.26986,0.131137 0.4903,0.318475 0.66047,0.562866 l -0.60762,0.733173 c -0.24064,-0.343169 -0.55218,-0.514754 -0.9342,-0.514754 -0.21099,0 -0.39576,0.06003 -0.55476,0.178823 -0.15856,0.119215 -0.29049,0.281007 -0.3962,0.484524 -0.10614,0.203518 -0.18477,0.444077 -0.23763,0.719975 -0.0528,0.276749 -0.0795,0.571807 -0.0795,0.886024 0,0.308682 0.0267,0.600759 0.0795,0.877509 0.0529,0.275898 0.13149,0.516457 0.23763,0.719549 0.10571,0.203943 0.23893,0.365735 0.4005,0.484524 0.16157,0.119216 0.3515,0.179249 0.56808,0.179249 0.20583,0 0.38374,-0.05237 0.53328,-0.157109 0.14954,-0.104739 0.27415,-0.232895 0.37471,-0.384469 l 0.60761,0.707202 c -0.16458,0.244391 -0.37428,0.442373 -0.62996,0.593521"
           id="Fill-69" />
        <path
           d="m 134.68985,36.313973 h -0.0352 l -0.67809,3.063404 h 1.37379 z m 1.10136,5.193098 -0.30853,-1.309238 h -1.63851 l -0.31712,1.309238 h -1.0571 l 1.55041,-6.179178 h 1.34758 l 1.5242,6.179178 z"
           id="Fill-70" />
      </g>
    </g>
  </g>
</svg>
