<?xml version="1.0" encoding="UTF-8" standalone="no"?>
<svg
   xmlns:dc="http://purl.org/dc/elements/1.1/"
   xmlns:cc="http://creativecommons.org/ns#"
   xmlns:rdf="http://www.w3.org/1999/02/22-rdf-syntax-ns#"
   xmlns:svg="http://www.w3.org/2000/svg"
   xmlns="http://www.w3.org/2000/svg"
   xmlns:sodipodi="http://sodipodi.sourceforge.net/DTD/sodipodi-0.dtd"
   xmlns:inkscape="http://www.inkscape.org/namespaces/inkscape"
   height="98"
   viewBox="0 0 114 98"
   width="114"
   version="1.1"
   id="svg80"
   sodipodi:docname="globalshapers.svg"
   inkscape:version="1.0.1 (3bc2e813f5, 2020-09-07)">
  <metadata
     id="metadata86">
    <rdf:RDF>
      <cc:Work
         rdf:about="">
        <dc:format>image/svg+xml</dc:format>
        <dc:type
           rdf:resource="http://purl.org/dc/dcmitype/StillImage" />
      </cc:Work>
    </rdf:RDF>
  </metadata>
  <defs
     id="defs84" />
  <sodipodi:namedview
     pagecolor="#ffffff"
     bordercolor="#666666"
     borderopacity="1"
     objecttolerance="10"
     gridtolerance="10"
     guidetolerance="10"
     inkscape:pageopacity="0"
     inkscape:pageshadow="2"
     inkscape:window-width="2560"
     inkscape:window-height="1017"
     id="namedview82"
     showgrid="false"
     inkscape:zoom="0.9375"
     inkscape:cx="359.14998"
     inkscape:cy="282.96562"
     inkscape:window-x="1912"
     inkscape:window-y="-8"
     inkscape:window-maximized="1"
     inkscape:current-layer="svg80" />
  <g
     fill="none"
     id="g78"
     transform="matrix(4.4687039,0,0,4.4687039,-0.38109128,-5.3655607)"
     inkscape:export-xdpi="96"
     inkscape:export-ydpi="96">
    <g
       fill="#184897"
       transform="translate(0.109835,1.546875)"
       id="g30">
      <path
         d="m 7.188121,50.466085 c 2.1280578,0 4.256783,0.0083 6.385509,-0.0093 0.41032,-0.0027 0.586267,0.08313 0.627667,0.531179 0.06444,0.645696 0.274437,1.28004 0.325518,1.925736 0.0384,0.573247 0.28846,0.612977 0.770228,0.552547 2.19216,-0.262418 4.392332,-0.473087 6.585494,-0.745855 0.570242,-0.07011 0.673406,0.127202 0.660719,0.628334 -0.0187,0.701451 -0.215677,1.370184 -0.299477,2.057946 -0.0621,0.493787 0.146233,0.600958 0.567571,0.504805 0.182291,-0.04274 0.360241,-0.09949 0.544534,-0.149238 0.774568,-0.210335 0.984236,-0.07111 1.134141,0.70479 0.07846,0.406648 -0.02637,0.647031 -0.443373,0.829989 -3.64414,1.571838 -7.261905,3.208112 -10.837269,4.931859 -2.931004,1.411917 -5.8436456,2.867236 -8.7576224,4.324224 C 4.0931892,66.730669 3.9482916,66.706297 3.7877024,66.310667 1.8082147,61.440573 0.58259504,56.39954 0.24004919,51.147504 c -0.034722,-0.510146 0.0227028,-0.715473 0.62933619,-0.699782 2.10602262,0.04507 4.21271302,0.01836 6.31873562,0.01836"
         id="path2" />
      <path
         d="m 42.344476,0.39496271 c 0.369255,-0.0734504 0.639686,0.0600958 0.696777,0.74585519 0.180622,2.1370721 0.438699,4.2694701 0.708129,6.3958585 0.0611,0.4954562 -0.142895,0.6109736 -0.543867,0.6837563 -1.03131,0.1832921 -2.089997,0.2173463 -3.109956,0.4954562 -0.599288,0.1642617 -0.923137,0.4500505 -0.763216,1.1097684 0.132879,0.5445347 -0.119524,0.7919287 -0.644694,0.9187977 -0.815633,0.193976 -1.628595,0.427014 -2.417853,0.702453 -0.440034,0.151241 -0.695107,0.105835 -0.855697,-0.360241 C 35.090584,10.155516 34.729008,9.2390559 34.413839,8.3052345 34.27662,7.9012574 34.079973,7.7513519 33.681672,7.9676966 c -0.03439,0.016693 -0.08146,0.015024 -0.121861,0.028712 -1.316097,0.4283493 -1.344476,0.4821016 -0.830323,1.7731589 0.804616,2.0299011 1.589199,4.0691511 2.426533,6.0840281 0.227697,0.543867 0.07178,0.826651 -0.388953,1.051676 -0.149571,0.07378 -0.304819,0.141225 -0.463739,0.196981 -0.540861,0.187966 -0.704789,0.521497 -0.477427,1.070038 0.233372,0.570576 0.08948,0.973551 -0.512483,1.265684 -0.82832,0.401306 -1.623921,0.881738 -2.421526,1.349483 -0.256742,0.149572 -0.398635,0.169938 -0.581259,-0.118522 -2.670589,-4.183667 -5.344517,-8.361657 -8.04048,-12.5279633 -0.25574,-0.3979675 -0.0047,-0.5171574 0.225359,-0.6887642 1.561489,-1.1645223 3.28991,-2.0258949 5.062735,-2.8041351 4.186337,-1.8375949 8.483184,-3.3296391 13.010065,-4.07148794 0.51916,-0.086805 1.048003,-0.10850624 1.776163,-0.18162275"
         id="path4" />
      <path
         d="m 48.333019,89.263576 c 0,-2.771416 0.0093,-4.835706 -0.0093,-6.89866 -0.006,-0.485106 0.168602,-0.711801 0.657715,-0.660719 0.633009,0.0641 0.785919,-0.252737 0.751865,-0.835332 -0.08146,-1.334459 -0.118523,-1.193234 1.091405,-1.366844 0.436029,-0.06143 0.886747,-0.05742 1.314428,-0.157251 0.627667,-0.149571 0.896429,0.120192 0.986906,0.693438 0.02437,0.166599 0.06377,0.330527 0.09348,0.497126 0.135883,0.758542 0.217012,0.843678 0.944839,0.629002 0.473421,-0.141559 0.644694,0 0.722484,0.444041 0.04708,0.289461 0.200987,0.567571 0.21334,0.854362 0.03005,0.739178 0.507475,0.874727 1.103091,0.88107 0.586936,0.0073 1.177209,0.02471 1.767483,0.01336 0.472086,-0.0067 0.724822,0.19865 0.862041,0.654042 0.245391,0.799608 0.313165,0.817303 1.127129,0.579924 0.664392,-0.199651 1.331121,-0.391958 1.993176,-0.596617 0.270431,-0.08447 0.427348,-0.08614 0.56056,0.252402 0.991914,2.52035 2.002858,5.035691 3.034836,7.538012 0.170939,0.409653 -0.0404,0.523167 -0.308491,0.673073 -1.403904,0.789925 -2.946696,1.221613 -4.489488,1.622585 -3.425124,0.893424 -6.889311,1.587864 -10.436964,1.70238 -2.002191,0.0631 -1.645957,0.248062 -1.761808,-1.551139 -0.118856,-1.888676 -0.168936,-3.782694 -0.218682,-4.96825"
         id="path6" />
      <path
         d="m 57.04991,0.96887725 c 2.47461,0.46774535 4.86375,1.11878275 7.201142,1.96145895 3.555666,1.2850477 6.89699,2.992769 10.060364,5.0590617 0.333865,0.2150093 0.389955,0.3679196 0.147569,0.7097977 -1.276701,1.8536204 -2.538379,3.7185924 -3.778688,5.5985884 -0.217013,0.32051 -0.404311,0.327856 -0.71514,0.191638 -0.915125,-0.39129 -1.693699,-1.016286 -2.56876,-1.476686 -0.812294,-0.426346 -0.812294,-0.429685 -1.239642,0.371926 -0.641355,1.207257 -1.288053,2.410508 -1.915052,3.623775 -0.14423,0.287124 -0.265089,0.340208 -0.567237,0.192306 -1.967802,-0.960531 -3.980009,-1.810886 -6.083027,-2.429204 -0.243054,-0.06944 -0.354565,-0.196981 -0.27644,-0.454725 0.01168,-0.0404 0.01803,-0.0828 0.03005,-0.122195 0.490114,-1.76982 0.471418,-1.432616 -1.236971,-1.910377 -0.101495,-0.02704 -0.205995,-0.03239 -0.311831,-0.05409 -1.05034,-0.212673 -1.055682,-0.214676 -0.886746,-1.310756 0.491784,-3.2034379 1.181216,-6.3671459 1.798533,-9.5445425 0.03038,-0.1702713 -0.03439,-0.53318295 0.341878,-0.40598025"
         id="path8" />
      <path
         d="m 77.140257,85.832108 c -0.112178,0.0868 -0.212004,0.164595 -0.308491,0.240383 -2.723674,2.148757 -5.658016,3.939611 -8.859117,5.291432 -0.400639,0.171941 -0.557889,0.08413 -0.738844,-0.313834 -2.767076,-6.196874 -5.548509,-12.38774 -8.349639,-18.567587 -0.174945,-0.384279 -0.06978,-0.587269 0.210001,-0.777573 0.418334,-0.280113 0.532516,-0.585933 0.214342,-1.041326 -0.255073,-0.352895 -0.149572,-0.647365 0.257744,-0.86638 0.595282,-0.3135 1.180882,-0.649702 1.742443,-1.022964 0.336203,-0.220017 0.515822,-0.164261 0.752867,0.144898 0.544868,0.702786 0.565567,0.69878 1.314427,0.193308 0.465075,-0.310829 0.770228,-0.280781 1.144491,0.211003 4.071488,5.345852 8.164343,10.671338 12.254194,16.002166 0.115183,0.149238 0.220685,0.306489 0.365582,0.506474"
         id="path10" />
      <path
         d="m 5.596251,48.820463 c -1.7030471,0 -3.4124377,-0.0027 -5.11648649,0.0037 -0.29780789,0 -0.5001303,0.01803 -0.47809518,-0.414661 C 0.24806196,43.181477 0.813296,38.005896 2.5243559,33.018949 c 0.1939758,-0.565568 0.376934,-0.668398 0.9598629,-0.460066 3.1049478,1.10643 6.2259211,2.170125 9.3522362,3.21913 0.436028,0.14857 0.55021,0.325518 0.413325,0.761547 -0.291798,0.920132 -0.536855,1.856959 -0.820641,2.781766 -0.179285,0.580258 -0.07946,0.981898 0.596284,1.07972 0.570576,0.0848 0.76956,0.321846 0.651037,0.963869 -0.272434,1.487704 -0.458731,2.994439 -0.631005,4.496833 -0.05943,0.500464 -0.384947,0.500464 -0.708796,0.526172 -0.896095,0.06911 -0.928814,0.09348 -0.897764,0.994918 0.0017,0.02137 0.003,0.0414 0.003,0.0601 0.03539,1.083393 0.03539,1.12546 -1.046334,1.152169 -1.5985478,0.04207 -3.1990983,0.01202 -4.7963102,0.01202 -0.003,0.07011 -0.003,0.141225 -0.003,0.21334"
         id="path12" />
      <path
         d="m 46.863344,84.273291 c -0.105168,3.578702 -0.105168,7.157405 -0.07712,10.736775 0.0063,0.505806 -0.16927,0.646698 -0.616315,0.679083 -1.312425,0.09949 -2.607489,-0.05409 -3.902219,-0.204994 -2.04626,-0.239048 -4.076829,-0.573914 -6.061659,-1.168529 -0.587603,-0.177616 -0.846349,-0.427013 -0.668398,-1.1091 0.681753,-2.642211 1.38721,-5.278745 2.254258,-7.86687 0.163928,-0.498794 0.387284,-0.570909 0.854362,-0.45005 1.479691,0.394963 1.5064,0.386282 1.843604,-1.105428 0.392626,-1.739773 0.73584,-3.493567 1.116446,-5.241352 0.161257,-0.728829 0.314835,-0.854362 1.039657,-0.615648 0.647031,0.21334 0.856698,0.0043 0.936158,-0.606967 0.16927,-1.331789 0.400305,-2.660573 0.547873,-3.997704 0.06544,-0.573915 0.337538,-0.752866 0.856699,-0.701785 h 0.0611 c 1.977819,0.13822 1.977819,0.13822 1.977819,2.12305 v 9.532189 c -0.05509,3.34e-4 -0.107171,-0.0027 -0.162259,-0.0027"
         id="path14" />
      <path
         d="m 26.535952,34.543379 c -0.143228,0.286456 -0.266091,0.55455 -0.406982,0.812962 -0.457729,0.82832 -0.904107,1.674001 -1.170532,2.578108 -0.185629,0.624996 -0.3973,0.700449 -0.992582,0.474756 C 18.115534,36.191672 12.249854,34.006189 6.3885135,31.811025 5.5061074,31.480498 4.6210303,31.142292 3.7299437,30.828793 3.3934074,30.710604 3.3336455,30.575723 3.4822156,30.235848 c 1.1007541,-2.503323 2.251588,-4.975262 3.7052377,-7.300634 0.2377121,-0.381274 0.3832774,-0.401306 0.7532002,-0.16927 6.0516435,3.806065 12.1196465,7.595771 18.1746285,11.39182 0.156916,0.09882 0.416998,0.134882 0.42067,0.385615"
         id="path16" />
      <path
         d="m 19.641299,69.591896 c -1.145826,0.865379 -1.276702,1.916721 -0.958862,3.117634 0.469749,1.772491 0.717143,3.554665 0.01035,5.32749 -0.107171,0.2721 0.06778,0.33253 0.20466,0.4397 0.480098,0.378604 0.953185,0.764886 1.446638,1.124793 0.3135,0.223356 0.390289,0.3766 0.09282,0.713136 -1.073044,1.214936 -2.120713,2.450906 -3.147683,3.705572 -0.268761,0.328523 -0.414994,0.315502 -0.725823,0.05409 C 12.528631,80.609118 9.2280383,76.54364 6.5801522,71.942975 5.9925492,70.926022 5.4760595,69.863662 4.8988063,68.840699 4.7058321,68.49882 4.7716036,68.357261 5.0991255,68.170297 c 1.3615029,-0.754536 2.811814,-1.321773 4.1986907,-2.019218 0.3318621,-0.165597 0.5235008,-0.0013 0.5842643,0.241385 0.2801135,1.090404 0.9972555,1.164188 1.9728105,1.068703 1.113775,-0.111177 2.137406,0.360908 3.09994,0.913789 0.635345,0.368922 1.265349,0.752867 1.858628,1.187226 0.421004,0.304819 0.827652,0.3559 1.300406,0.196646 0.453389,-0.153244 0.914457,-0.298475 1.527434,-0.166932"
         id="path18" />
      <path
         d="m 30.728633,77.127236 c -0.0828,0.141893 -0.165263,0.290797 -0.248396,0.434359 -1.24298,2.101349 -2.463926,4.212713 -3.739626,6.291025 -0.304819,0.497459 -0.176614,0.732167 0.240717,1.000595 0.898432,0.588604 1.083393,0.544868 1.548468,-0.416998 0.05308,-0.117521 0.09882,-0.235041 0.15892,-0.343882 0.413993,-0.775569 0.571911,-0.826984 1.335127,-0.422673 1.745782,0.931484 3.606414,1.594207 5.450352,2.299998 0.399303,0.152911 0.487444,0.290129 0.346219,0.718479 -0.711801,2.153431 -1.306749,4.340249 -2.097009,6.468307 -0.101495,0.280781 -0.179619,0.453055 -0.559224,0.310829 -4.415703,-1.675003 -8.683504,-3.630452 -12.624451,-6.257973 -0.666395,-0.442037 -1.292726,-0.939831 -1.865305,-1.501392 -0.245725,-0.242386 -0.260082,-0.416998 -0.04307,-0.68843 2.689953,-3.402088 5.374898,-6.809184 8.046489,-10.225628 0.238713,-0.302482 0.382276,-0.322514 0.697111,-0.09782 0.987239,0.716475 2.009869,1.388212 3.012133,2.085991 0.127536,0.09048 0.308491,0.142226 0.341544,0.345217"
         id="path20" />
      <path
         d="m 20.534388,8.7345853 c 0.16493,0.0207 0.218014,0.1472347 0.287792,0.2487297 1.963129,2.812148 3.919246,5.629971 5.891054,8.436777 0.181289,0.256409 0.112847,0.401307 -0.05976,0.596618 -0.912121,1.017288 -1.829916,2.032572 -2.720335,3.071561 -0.235709,0.276107 -0.398302,0.199652 -0.626999,0.03906 -0.386283,-0.268761 -0.652707,-0.654042 -0.955857,-1.003599 -0.296806,-0.344883 -0.555552,-0.377936 -0.95185,-0.09348 -1.559485,1.120118 -3.007793,2.373449 -4.402682,3.686207 -0.385281,0.362244 -0.659385,0.343548 -1.019625,0.05709 -0.330193,-0.260081 -0.67107,-0.509145 -1.00794,-0.761881 -0.26609,-0.201654 -0.489446,-0.213006 -0.768892,0.03506 -0.417331,0.366918 -0.785585,1.009943 -1.301741,0.981898 -0.471418,-0.02571 -0.919131,-0.539192 -1.373188,-0.842676 C 10.616584,22.575641 9.7188204,21.951981 8.8000229,21.356699 8.4808477,21.145696 8.3910379,21.000798 8.6464449,20.63989 11.842204,16.107334 15.637585,12.172731 20.18216,8.9779732 20.301684,8.891502 20.426216,8.8100389 20.534388,8.7345853"
         id="path22" />
      <path
         d="m 48.47124,0.00233706 c 2.064289,0.02637536 4.107879,0.32818964 6.156143,0.55521808 0.37226,0.0417332 0.429684,0.21267223 0.378269,0.53819096 -0.565234,3.7670027 -1.128799,7.5346732 -1.678007,11.3036789 -0.05776,0.390289 -0.223356,0.517826 -0.60029,0.542532 -0.649034,0.04307 -1.297067,0.135215 -1.944432,0.215676 -0.388953,0.04674 -0.607301,0.254072 -0.707127,0.666396 -0.300478,1.207257 -0.554884,2.420857 -0.728828,3.64848 -0.06143,0.420671 -0.246392,0.617985 -0.614646,0.774234 -0.778908,0.330527 -1.60656,0.481768 -2.411843,0.726825 -0.304819,0.09248 -0.389621,0.0047 -0.410988,-0.310495 C 45.75658,16.14239 45.585975,13.624377 45.417373,11.102358 45.19335,7.6999366 44.978006,4.2965132 44.743633,0.89676234 44.71058,0.47342107 44.754317,0.27109867 45.257452,0.21300609 46.324151,0.09281457 47.394858,-0.01769486 48.47124,0.00233706"
         id="path24" />
      <path
         d="m 80.457543,27.800968 c -0.216344,-0.01903 -0.28679,-0.223022 -0.387951,-0.36358 -0.340877,-0.480098 -0.674742,-0.877064 -1.296399,-0.353563 -0.208332,0.170271 -0.441036,0.09749 -0.600958,-0.126535 -0.603628,-0.814298 -1.201247,-1.628261 -1.817229,-2.429538 -0.195645,-0.25741 -0.09448,-0.443373 0.09315,-0.594614 0.540862,-0.428016 0.450385,-0.863042 -0.01002,-1.245652 -0.52951,-0.442372 -0.442037,-0.814965 0.01536,-1.228958 0.711133,-0.651038 1.402235,-1.331455 2.132732,-1.966133 0.362578,-0.312498 0.331528,-0.524503 0.0207,-0.859036 -1.594875,-1.716402 -3.359353,-3.24684 -5.21264,-4.668773 -0.3559,-0.271099 -0.438031,-0.427681 -0.138888,-0.817636 0.885077,-1.149499 1.733095,-2.331048 2.566423,-3.5199426 0.229032,-0.3235155 0.374263,-0.3331976 0.689098,-0.099492 4.722526,3.5249505 8.66414,7.7733875 11.813158,12.7610015 0.139889,0.220685 0.366584,0.400305 -0.03339,0.644026 -2.54205,1.565829 -5.071081,3.152691 -7.601112,4.733543 -0.07245,0.04541 -0.147902,0.08514 -0.232037,0.134882"
         id="path26" />
      <path
         d="m 77.178986,72.513885 c 0.377601,0.157251 0.658382,0.38261 0.925141,0.618986 1.22395,1.065365 1.230293,1.074045 2.399824,0.05409 0.272434,-0.241385 0.4811,-0.308158 0.815967,-0.07545 1.54613,1.056684 2.982419,2.26127 4.485481,3.374043 0.318507,0.235709 0.173943,0.410321 0.03539,0.621658 -0.813963,1.210262 -1.779836,2.293654 -2.769747,3.355013 -1.295397,1.384205 -2.61717,2.733689 -4.135256,3.886526 -0.365916,0.274437 -0.586267,0.290129 -0.909115,-0.109842 -1.774161,-2.190156 -3.582375,-4.354272 -5.393595,-6.512377 -0.265423,-0.316838 -0.306488,-0.483103 0.04173,-0.788924 1.461663,-1.272361 2.813484,-2.659571 4.123571,-4.086846 0.116853,-0.128872 0.21334,-0.310161 0.380607,-0.33687"
         id="path28" />
    </g>
    <g
       fill="#4e4f50"
       transform="translate(47.85258,36.268872)"
       id="g76">
      <path
         d="M 8.7462706,8.0838818 V 0.37660012 H 9.7638922 V 7.1677552 h 3.7960488 v 0.9161266 z"
         id="path32" />
      <path
         d="m 14.218992,4.3265611 c 0,-1.2756995 0.346886,-2.278631 1.031309,-3.0011156 0.687429,-0.72281854 1.572506,-1.08506245 2.659906,-1.08506245 0.713136,0 1.352488,0.1706052 1.923398,0.5098124 0.573581,0.34087655 1.00794,0.81396375 1.305747,1.42159865 0.301147,0.6069672 0.450719,1.2963992 0.450719,2.0656249 0,0.7802434 -0.158253,1.4793574 -0.472086,2.0963406 -0.316838,0.617317 -0.764218,1.083393 -1.340469,1.3998974 -0.578923,0.3168382 -1.203919,0.4757581 -1.869646,0.4757581 -0.727827,0 -1.375192,-0.1769486 -1.9451,-0.525504 C 15.38752,7.3340202 14.957168,6.8565927 14.664702,6.2506271 14.366894,5.643326 14.218992,5.0039739 14.218992,4.3265611 Z m 1.053679,0.019698 c 0,0.9261425 0.252402,1.6566399 0.748526,2.1901568 0.499796,0.5338506 1.126127,0.7999413 1.877324,0.7999413 0.766555,0 1.401901,-0.2687616 1.897691,-0.8079541 0.494789,-0.538191 0.743852,-1.3040781 0.743852,-2.2929873 0,-0.6263314 -0.107171,-1.1735367 -0.319843,-1.6406143 C 20.010554,2.1280577 19.698723,1.7664816 19.290406,1.5087375 18.882423,1.2523289 18.426029,1.1234569 17.915549,1.1234569 c -0.71948,0 -1.341138,0.2473942 -1.863971,0.7435181 -0.520496,0.4944546 -0.778907,1.3204375 -0.778907,2.4792841 z"
         id="path34" />
      <path
         d="M 22.608694,8.0838818 V 0.37660012 h 2.886934 c 0.587269,0 1.059354,0.0797938 1.412918,0.23270415 0.354565,0.15725058 0.632007,0.39663203 0.835665,0.71947983 0.197982,0.3235155 0.301814,0.6617211 0.301814,1.0136152 0,0.3288574 -0.08948,0.6380167 -0.272768,0.9281457 -0.178618,0.2891274 -0.45005,0.5245025 -0.812628,0.7024527 0.469748,0.1372187 0.832326,0.3699228 1.085396,0.7004495 0.250399,0.3305267 0.375932,0.7204814 0.375932,1.1691965 0,0.3632455 -0.07579,0.6997817 -0.228697,1.0089411 -0.151575,0.3131657 -0.338874,0.5508778 -0.563565,0.7201475 -0.225359,0.1692698 -0.50614,0.2961386 -0.844012,0.3822758 -0.338205,0.087473 -0.750195,0.1305414 -1.240309,0.1305414 h -2.93668 z m 1.021962,-4.4794715 h 1.65664 c 0.449049,0 0.774233,-0.028045 0.969545,-0.088474 0.257744,-0.077791 0.451386,-0.203324 0.580925,-0.3819419 0.131209,-0.1759471 0.198984,-0.3983014 0.198984,-0.667063 0,-0.2547393 -0.06177,-0.4770936 -0.18396,-0.6710694 C 26.730262,1.6025537 26.554982,1.4693414 26.32762,1.3992297 26.102929,1.329118 25.714977,1.2920589 25.162096,1.2920589 h -1.53144 z m 0,3.5636788 h 1.917055 c 0.331862,0 0.561561,-0.012019 0.693438,-0.036725 0.237378,-0.041399 0.430686,-0.111511 0.590608,-0.2103352 0.15725,-0.096821 0.28679,-0.240383 0.387951,-0.4273476 0.09983,-0.1872985 0.151909,-0.4043109 0.151909,-0.6507036 0,-0.2857887 -0.07378,-0.53552 -0.227696,-0.7475245 C 26.991011,4.8834485 26.786017,4.7348784 26.524934,4.649075 26.264186,4.5626039 25.889923,4.5205369 25.402145,4.5205369 h -1.771823 v 2.6475522 z"
         id="path36" />
      <path
         d="m 28.746808,8.0838818 2.956378,-7.70728168 h 1.106096 L 35.958968,8.0838818 H 34.79912 l -0.892089,-2.335722 h -3.237158 l -0.842009,2.335722 z m 2.212526,-3.1650436 h 2.62752 L 32.7789,2.7810984 c -0.248729,-0.6470311 -0.430018,-1.182885 -0.551879,-1.6062262 -0.09983,0.5021335 -0.23838,0.9975896 -0.414995,1.4860347 z"
         id="path38" />
      <path
         d="M 36.474122,8.0838818 V 0.37660012 h 1.019959 V 7.1677552 h 3.792376 v 0.9161266 z"
         id="path40" />
      <path
         d="m 0.32518485,16.096984 0.96620635,-0.08347 c 0.045072,0.385614 0.1505732,0.700783 0.3151689,0.947844 0.165931,0.248395 0.4243428,0.447379 0.7712289,0.599288 0.3502248,0.15291 0.741515,0.228364 1.177877,0.228364 0.3809404,0 0.7251555,-0.05576 1.0212941,-0.173276 0.2954708,-0.11485 0.515822,-0.27377 0.6630566,-0.473755 0.1428944,-0.202323 0.2153431,-0.421672 0.2153431,-0.660386 0,-0.239381 -0.069444,-0.450718 -0.2096674,-0.629002 C 5.1084737,15.67164 4.8801098,15.522068 4.5616023,15.400207 4.356609,15.318744 3.9008828,15.19488 3.1974285,15.025944 2.4913033,14.855005 1.9971825,14.695417 1.7143986,14.544176 1.3458112,14.349533 1.0710401,14.110819 0.89008503,13.824029 0.71046547,13.53824 0.61965409,13.218063 0.61965409,12.863498 c 0,-0.388953 0.11017557,-0.753868 0.33019284,-1.092741 C 1.1705319,11.431884 1.4907088,11.175141 1.9130485,10.999862 2.3353881,10.823915 2.8071399,10.73711 3.3242973,10.73711 c 0.5705759,0 1.073711,0.09115 1.5060666,0.274771 0.4353604,0.184627 0.7698935,0.455726 1.0035993,0.812962 0.2340396,0.357236 0.3622439,0.761547 0.3776017,1.213934 l -0.9765562,0.07379 C 5.182258,12.631128 5.0073125,12.266881 4.7024935,12.020488 4.4033501,11.774096 3.9583076,11.650565 3.3690353,11.650565 c -0.6156477,0 -1.0600225,0.114182 -1.3408033,0.339208 -0.2807808,0.225025 -0.4216719,0.495456 -0.4216719,0.814631 0,0.276441 0.099492,0.503135 0.2991433,0.682421 0.1946435,0.177616 0.7027866,0.360574 1.5287695,0.547539 0.8223103,0.185629 1.3918846,0.350225 1.6943666,0.490114 0.4517198,0.205327 0.7805772,0.467746 0.991914,0.784918 0.2170125,0.315836 0.3201769,0.679082 0.3201769,1.091072 0,0.411322 -0.1151836,0.795935 -0.3488893,1.156509 -0.2350412,0.363913 -0.5709098,0.644694 -1.0109443,0.846349 -0.4376975,0.200987 -0.9294812,0.302148 -1.4806928,0.302148 -0.6931045,0 -1.2753657,-0.103832 -1.7474513,-0.304819 C 1.3838719,18.197999 1.0149507,17.890843 0.74685679,17.482859 0.47943065,17.072872 0.33887333,16.611804 0.32518485,16.096984 Z"
         id="path42" />
      <path
         d="m 7.6358345,18.576936 v -7.703943 h 1.0209602 v 3.153358 H 12.65116 v -3.153358 h 1.020626 v 7.703943 H 12.65116 V 14.940474 H 8.6567947 v 3.636462 z"
         id="path44" />
      <path
         d="m 14.28276,18.576936 2.958047,-7.703943 h 1.106096 l 3.148016,7.703943 h -1.15918 l -0.894426,-2.332383 h -3.235489 l -0.842008,2.332383 z m 2.212192,-3.163374 h 2.626184 l -0.804615,-2.138408 c -0.250399,-0.647031 -0.434359,-1.180548 -0.55188,-1.603555 -0.09949,0.501132 -0.240383,0.995586 -0.415662,1.484031 z"
         id="path46" />
      <path
         d="m 22.051473,18.576936 v -7.703943 h 2.905296 c 0.511482,0 0.899433,0.02404 1.171867,0.07378 0.3766,0.06277 0.695108,0.182958 0.948512,0.358905 0.257076,0.177617 0.461735,0.425679 0.618986,0.743519 0.155581,0.319509 0.234707,0.670401 0.234707,1.051342 0,0.654042 -0.208999,1.209594 -0.626999,1.663651 -0.41633,0.454056 -1.168528,0.680751 -2.255928,0.680751 h -1.97448 v 3.131657 h -1.021961 z m 1.021961,-4.046782 h 1.987835 c 0.656045,0 1.123791,-0.120192 1.402234,-0.364915 0.277108,-0.246393 0.414327,-0.588938 0.414327,-1.032645 0,-0.322181 -0.08246,-0.594948 -0.245391,-0.824314 -0.16326,-0.228364 -0.375598,-0.379605 -0.641355,-0.452387 -0.173944,-0.04641 -0.489113,-0.06944 -0.952852,-0.06944 h -1.965131 v 2.743706 z"
         id="path48" />
      <path
         d="m 29.004552,18.576936 v -7.703943 h 5.571879 v 0.913456 h -4.55192 v 2.345404 h 4.25645 v 0.914123 h -4.25645 v 2.617504 h 4.73154 v 0.913456 z"
         id="path50" />
      <path
         d="m 43.107359,16.096984 0.96654,-0.08347 c 0.04374,0.385614 0.15291,0.700783 0.315837,0.947844 0.165263,0.248395 0.422339,0.447379 0.771228,0.599288 0.348556,0.15291 0.742851,0.228364 1.174539,0.228364 0.387951,0 0.730497,-0.05576 1.022963,-0.173276 0.29714,-0.11485 0.517825,-0.27377 0.661054,-0.473755 0.145231,-0.202323 0.219015,-0.421672 0.219015,-0.660386 0,-0.239381 -0.07145,-0.450718 -0.208999,-0.629002 -0.137219,-0.180955 -0.364915,-0.330527 -0.686428,-0.452388 -0.203657,-0.08146 -0.661053,-0.205327 -1.364173,-0.374263 -0.70479,-0.170939 -1.196574,-0.330527 -1.482029,-0.481768 -0.367252,-0.194643 -0.64269,-0.433357 -0.82231,-0.720147 -0.182624,-0.285789 -0.270765,-0.605966 -0.270765,-0.960531 0,-0.388953 0.107839,-0.753868 0.327188,-1.092741 0.220685,-0.338873 0.541864,-0.595616 0.963202,-0.770895 0.425678,-0.175947 0.89576,-0.262752 1.41225,-0.262752 0.57091,0 1.072042,0.09115 1.504731,0.274771 0.438032,0.184627 0.772565,0.455726 1.005603,0.812962 0.234039,0.357236 0.360574,0.761547 0.375598,1.213934 l -0.977557,0.07379 c -0.04975,-0.481434 -0.226695,-0.845681 -0.529177,-1.092074 -0.299143,-0.246392 -0.74452,-0.369923 -1.336463,-0.369923 -0.612977,0 -1.059355,0.114182 -1.339134,0.339208 -0.279445,0.225025 -0.421004,0.495456 -0.421004,0.814631 0,0.276441 0.09983,0.503135 0.299143,0.682421 0.19264,0.177616 0.704122,0.360574 1.526433,0.547539 0.826316,0.185629 1.390215,0.350225 1.698706,0.490114 0.448048,0.205327 0.776571,0.467746 0.991247,0.784918 0.215009,0.315836 0.320177,0.679082 0.320177,1.091072 0,0.411322 -0.116853,0.795935 -0.350559,1.156509 -0.23404,0.363913 -0.572245,0.644694 -1.009275,0.846349 -0.439033,0.200987 -0.931484,0.302148 -1.480693,0.302148 -0.695441,0 -1.28004,-0.103832 -1.747785,-0.304819 -0.470082,-0.202656 -0.839004,-0.509812 -1.107431,-0.917796 -0.266425,-0.409987 -0.406982,-0.871055 -0.421672,-1.385875 z"
         id="path52" />
      <path
         d="M 6.1581464,26.368352 7.180776,26.625094 C 6.9644312,27.463096 6.5814877,28.099777 6.0242664,28.540146 5.4690483,28.98018 4.7926371,29.19953 3.9883555,29.19953 3.1580324,29.19953 2.4829566,29.03026 1.9631283,28.693056 1.4419644,28.35652 1.0453324,27.865404 0.77389989,27.222045 0.50213349,26.584363 0.36591643,25.894263 0.36591643,25.157756 c 0,-0.799608 0.15391192,-1.501726 0.46040032,-2.099012 0.30648835,-0.599288 0.74418585,-1.051675 1.30708285,-1.361502 0.5655679,-0.310829 1.1895622,-0.464407 1.8703137,-0.464407 0.7688919,0 1.4152552,0.195645 1.941427,0.586935 0.5228332,0.39296 0.8910866,0.945841 1.0964138,1.65664 L 6.0322792,23.713454 C 5.851658,23.153562 5.5955833,22.744243 5.2577116,22.487501 4.9178366,22.232428 4.4918244,22.102888 3.9780057,22.102888 c -0.5899401,0 -1.0867317,0.140891 -1.4816945,0.425678 C 2.1003469,22.815357 1.8199,23.195629 1.6603124,23.672055 1.49772,24.152153 1.4179261,24.64594 1.4179261,25.153082 c 0,0.656379 0.095152,1.225953 0.2864565,1.715734 0.1906371,0.490448 0.4874434,0.854361 0.8910866,1.095746 0.404311,0.242052 0.840673,0.36191 1.3100877,0.36191 0.5682388,0 1.053679,-0.16326 1.4483079,-0.494121 0.3976336,-0.329525 0.664392,-0.816634 0.8042816,-1.463999 z"
         id="path54" />
      <path
         d="m 7.8838964,25.318345 c 0,-1.277035 0.342212,-2.277296 1.0299746,-3.003787 0.6860933,-0.722818 1.57284,-1.081389 2.657902,-1.081389 0.710799,0 1.355493,0.168935 1.924734,0.507809 0.571911,0.338539 1.005602,0.813964 1.306749,1.418928 0.298809,0.607968 0.447379,1.300405 0.447379,2.068629 0,0.780577 -0.155915,1.477354 -0.471751,2.096675 -0.313166,0.615647 -0.760212,1.08139 -1.339802,1.399897 -0.577587,0.31784 -1.202917,0.473755 -1.872985,0.473755 -0.722818,0 -1.371519,-0.174945 -1.9434298,-0.526172 C 9.0517574,28.324135 8.6187341,27.847041 8.3242648,27.239072 8.0294617,26.636779 7.8838964,25.994089 7.8838964,25.318345 Z m 1.0493388,0.01803 c 0,0.928145 0.2493974,1.656974 0.7485261,2.19049 0.4997967,0.53552 1.1291327,0.800609 1.8809977,0.800609 0.766888,0 1.399229,-0.268427 1.894018,-0.806952 0.495122,-0.539193 0.742516,-1.303744 0.742516,-2.294657 0,-0.625997 -0.103832,-1.172535 -0.314835,-1.640614 -0.213006,-0.464407 -0.522833,-0.829322 -0.931484,-1.085062 -0.409987,-0.255741 -0.866047,-0.384613 -1.375191,-0.384613 -0.720816,0 -1.342473,0.246392 -1.8616335,0.74285 -0.5214977,0.495122 -0.7829143,1.320104 -0.7829143,2.477949 z"
         id="path56" />
      <path
         d="m 16.271596,29.073663 v -7.704945 h 1.533443 l 1.833923,5.45536 c 0.167266,0.509144 0.290462,0.889751 0.369255,1.141152 0.08814,-0.280781 0.225359,-0.691102 0.412323,-1.236304 l 1.860298,-5.360542 h 1.369182 v 7.704945 h -0.98724 v -6.444603 l -2.251588,6.444603 h -0.917796 l -2.23623,-6.559787 v 6.559787 h -0.98557 z"
         id="path58" />
      <path
         d="m 24.991825,29.073663 v -7.704945 h 1.533443 l 1.83192,5.45536 c 0.169269,0.509144 0.292799,0.889751 0.369922,1.141152 0.09048,-0.280781 0.226695,-0.691102 0.41366,-1.236304 l 1.858962,-5.360542 h 1.370183 v 7.704945 h -0.988909 v -6.444603 l -2.249919,6.444603 h -0.917795 l -2.234227,-6.559787 v 6.559787 h -0.98724 z"
         id="path60" />
      <path
         d="m 38.807173,21.368384 h 1.020293 v 4.449757 c 0,0.773233 -0.08781,1.387879 -0.263086,1.842269 -0.175613,0.453723 -0.488445,0.826985 -0.94751,1.108767 -0.458397,0.288794 -1.053011,0.430353 -1.800536,0.430353 -0.720148,0 -1.310088,-0.12353 -1.768485,-0.37226 -0.455726,-0.250399 -0.785585,-0.606967 -0.980896,-1.077717 -0.195311,-0.472086 -0.295137,-1.114777 -0.295137,-1.931078 v -4.449757 h 1.019291 v 4.441745 c 0,0.665393 0.0621,1.157177 0.185629,1.474015 0.127203,0.317506 0.340209,0.563565 0.641355,0.73417 0.301815,0.171607 0.674742,0.256742 1.108767,0.256742 0.748526,0 1.283712,-0.171272 1.603221,-0.511147 0.318174,-0.337204 0.477094,-0.989577 0.477094,-1.95378 z"
         id="path62" />
      <path
         d="m 41.268428,29.073663 v -7.704945 h 1.044665 l 4.054127,6.050976 v -6.050976 h 0.976222 v 7.704945 h -1.046 l -4.05179,-6.050642 v 6.050642 z"
         id="path64" />
      <path
         d="m 48.983055,29.073663 v -7.704945 h 1.018957 v 7.704945 z"
         id="path66" />
      <path
         d="m 53.510937,29.073663 v -6.790488 h -2.540715 v -0.914457 h 6.108066 v 0.914457 h -2.546391 v 6.790488 z"
         id="path68" />
      <path
         d="m 60.046351,29.073663 v -3.2632 l -2.974406,-4.441745 h 1.222949 l 1.523427,2.335054 c 0.28245,0.43269 0.547873,0.870387 0.792263,1.310088 0.240383,-0.413659 0.525504,-0.873726 0.851356,-1.379532 l 1.497053,-2.26561 h 1.187559 l -3.079908,4.441745 v 3.2632 z"
         id="path70" />
      <path
         d="M 5.8867139,0.69443993 C 6.6415834,1.0840608 7.1049885,1.7668154 7.2765953,2.7437055 H 6.2372725 C 6.1117391,2.1985033 5.856666,1.7985327 5.4653758,1.5504707 5.0787597,1.3004056 4.5869761,1.1788786 3.9940312,1.1788786 c -0.699114,0 -1.2930605,0.2547392 -1.770488,0.778574 -0.4810999,0.5151542 -0.7191459,1.2877186 -0.7191459,2.3143546 0,0.8867463 0.1939757,1.6088971 0.5956158,2.1677877 0.3942949,0.5588906 1.0396567,0.8370004 1.9330803,0.8370004 0.6870949,0 1.2560015,-0.1976483 1.7067197,-0.5872691 C 6.183854,6.2960328 6.4188952,5.663358 6.4285773,4.7903001 H 4.0033794 V 3.9512964 h 3.39708 V 7.9456615 H 6.7287223 L 6.4746508,6.9851309 C 6.1264292,7.3620649 5.816936,7.6214782 5.5465051,7.7673774 5.0924482,8.0171087 4.5212046,8.1449791 3.8204212,8.1449791 2.9139768,8.1449791 2.1404108,7.8585226 1.4913765,7.2839404 0.78358198,6.5671315 0.42768152,5.5798916 0.42768152,4.3282304 c 0,-1.2516612 0.34555064,-2.2455783 1.03932288,-2.9840885 C 2.12739,0.63968601 2.9750741,0.2881258 4.0190711,0.2881258 c 0.7211492,0 1.3404694,0.13655093 1.8676428,0.40631413"
         id="path72" />
      <path
         d="m 35.946281,10.886014 h 3.673186 c 0.603295,0 1.101422,0.0848 1.495383,0.25574 0.747191,0.32385 1.115444,0.925475 1.115444,1.803875 0,0.455726 -0.09615,0.830991 -0.29714,1.120786 -0.198983,0.28846 -0.481434,0.522833 -0.839671,0.700783 0.317506,0.12086 0.555552,0.280781 0.715807,0.475425 0.159922,0.199317 0.245391,0.519828 0.264088,0.964203 l 0.04073,1.022963 c 0.0087,0.290463 0.03305,0.507476 0.07579,0.648033 0.06644,0.243054 0.180955,0.398301 0.349557,0.46474 v 0.174946 h -1.338466 c -0.0394,-0.0651 -0.06944,-0.149238 -0.09048,-0.256409 -0.0197,-0.102496 -0.0394,-0.302482 -0.05308,-0.599288 L 40.98698,16.38945 c -0.02537,-0.501466 -0.212672,-0.832994 -0.57091,-1.005268 -0.202322,-0.09181 -0.515822,-0.141893 -0.953519,-0.141893 h -2.425198 v 3.275219 h -1.091072 z m 3.553663,3.498241 c 0.497793,0 0.894759,-0.09882 1.187225,-0.2928 0.288793,-0.194644 0.431688,-0.543199 0.431688,-1.050007 0,-0.542531 -0.200987,-0.914123 -0.612643,-1.11077 -0.217013,-0.10283 -0.502134,-0.155247 -0.867049,-0.155247 h -2.602146 v 2.608824 z"
         id="path74" />
    </g>
  </g>
</svg>
