<?xml version="1.0" encoding="UTF-8" standalone="no"?>
<svg
   xmlns:dc="http://purl.org/dc/elements/1.1/"
   xmlns:cc="http://creativecommons.org/ns#"
   xmlns:rdf="http://www.w3.org/1999/02/22-rdf-syntax-ns#"
   xmlns:svg="http://www.w3.org/2000/svg"
   xmlns="http://www.w3.org/2000/svg"
   xmlns:sodipodi="http://sodipodi.sourceforge.net/DTD/sodipodi-0.dtd"
   xmlns:inkscape="http://www.inkscape.org/namespaces/inkscape"
   width="196"
   height="68"
   version="1.1"
   id="svg14"
   sodipodi:docname="msf-logo-full-white.svg"
   inkscape:version="1.0.1 (3bc2e813f5, 2020-09-07)">
  <metadata
     id="metadata20">
    <rdf:RDF>
      <cc:Work
         rdf:about="">
        <dc:format>image/svg+xml</dc:format>
        <dc:type
           rdf:resource="http://purl.org/dc/dcmitype/StillImage" />
      </cc:Work>
    </rdf:RDF>
  </metadata>
  <defs
     id="defs18" />
  <sodipodi:namedview
     pagecolor="#ffffff"
     bordercolor="#666666"
     borderopacity="1"
     objecttolerance="10"
     gridtolerance="10"
     guidetolerance="10"
     inkscape:pageopacity="0"
     inkscape:pageshadow="2"
     inkscape:window-width="2560"
     inkscape:window-height="1017"
     id="namedview16"
     showgrid="false"
     inkscape:zoom="2.0780281"
     inkscape:cx="107.06202"
     inkscape:cy="110.26129"
     inkscape:window-x="1912"
     inkscape:window-y="-8"
     inkscape:window-maximized="1"
     inkscape:current-layer="svg14" />
  <g
     id="g873"
     transform="matrix(2.5569848,0,0,2.5569848,-2.8901578e-4,-0.43851807)"
     inkscape:export-xdpi="96.149391"
     inkscape:export-ydpi="96.149391">
    <path
       fill="#ffffff"
       fill-rule="nonzero"
       d="M 47.962,46.683 H 194.367 V 46.365 H 47.962 Z"
       id="path2"
       style="fill:#000000" />
    <path
       fill="#ffffff"
       d="m 123.27,37.015 -1.263,4.856 h -0.018 l -1.184,-4.856 h -2.371 l -1.945,7.463 h 1.759 l 1.241,-4.77 h 0.02 l 1.24,4.77 h 2.342 l 1.94,-7.463 h -1.76 m -10.781,3.744 1.34,-2.138 h 0.019 l 0.132,2.138 h -1.492 z m 0.607,-3.744 c -1.653,2.503 -3.287,5.03 -5.014,7.462 h 2.201 l 1.32,-2.154 h 2.353 l 0.129,2.154 h 2.131 c -0.253,-2.479 -0.56,-5.017 -0.709,-7.462 z m 14.43,2.005 c 0.104,-0.392 0.686,-0.53 0.997,-0.538 0.593,-0.013 0.942,0.146 1.326,0.38 0,0 0.384,-1.476 0.392,-1.55 -0.625,-0.342 -1.307,-0.428 -1.81,-0.428 -1.788,0 -2.717,1.05 -2.89,1.934 -0.338,1.738 1.776,2.701 1.546,3.501 -0.17,0.598 -0.75,0.628 -1.08,0.628 -0.564,0 -1.097,-0.178 -1.57,-0.44 l -0.425,1.735 c 0.566,0.194 1.384,0.368 2.037,0.37 2.085,0.003 2.75,-0.921 2.969,-1.94 0.377,-1.743 -1.745,-2.685 -1.492,-3.651 M 107.161,39.02 c 0.101,-0.392 0.687,-0.53 0.997,-0.538 0.593,-0.013 0.942,0.146 1.327,0.38 0,0 0.492,-1.42 0.5,-1.493 -0.665,-0.417 -1.416,-0.485 -1.918,-0.485 -1.788,0 -2.719,1.05 -2.89,1.934 -0.338,1.738 1.773,2.701 1.545,3.501 -0.17,0.598 -0.751,0.628 -1.08,0.628 -0.561,0 -1.098,-0.178 -1.567,-0.44 l -0.427,1.735 c 0.564,0.194 1.386,0.368 2.035,0.37 2.088,0.003 2.751,-0.921 2.97,-1.94 0.378,-1.743 -1.745,-2.663 -1.492,-3.651 m 51.979,2.837 h -0.018 l -1.183,-4.853 h -2.372 l -1.943,7.458 h 1.76 l 1.242,-4.766 h 0.018 l 1.235,4.766 h 2.345 l 1.942,-7.458 h -1.76 l -1.266,4.853 m -22.38,-3.254 h 2.899 l 0.42,-1.601 h -4.906 l -1.949,7.46 h 2.01 l 0.769,-2.952 h 2.43 l 0.415,-1.6 h -2.427 l 0.339,-1.307 m 31.78,-1.6 h -5.663 l -0.418,1.596 h 1.831 l -1.528,5.86 h 2.01 l 1.527,-5.86 h 1.822 l 0.42,-1.596 m 0.704,0 -1.943,7.462 h 2.008 l 1.944,-7.462 h -2.009 m 6.548,4.505 0.416,-1.599 h -2.51 l 0.342,-1.31 h 3.174 l 0.42,-1.596 h -5.186 l -1.946,7.462 h 5.183 l 0.42,-1.605 h -3.175 l 0.352,-1.352 h 2.51 m 12.857,0 0.419,-1.6 -2.573,10e-4 0.343,-1.31 h 3.174 l 0.418,-1.596 h -5.182 l -1.947,7.46 h 5.183 l 0.418,-1.605 h -3.174 l 0.352,-1.35 h 2.57 m -36.818,-0.767 c -0.33,1.187 -1.257,2.235 -2.4,2.235 -1.213,0 -1.528,-1.073 -1.227,-2.222 0.298,-1.154 1.175,-2.238 2.39,-2.238 1.168,0 1.519,1.025 1.237,2.225 z m -0.814,-3.857 c -2.266,0 -4.174,1.388 -4.819,3.857 -0.647,2.481 0.54,3.87 2.81,3.87 2.132,0 4.072,-1.232 4.781,-3.655 0.744,-2.626 -0.505,-4.072 -2.772,-4.072 z m 41.807,2.123 c 0.113,-0.389 0.686,-0.532 0.997,-0.538 0.593,-0.014 0.943,0.147 1.325,0.38 0,0 0.386,-1.475 0.395,-1.55 -0.626,-0.343 -1.308,-0.427 -1.811,-0.427 -1.786,0 -2.718,1.048 -2.89,1.933 -0.336,1.738 1.775,2.7 1.545,3.501 -0.171,0.598 -0.748,0.627 -1.082,0.627 -0.56,0 -1.095,-0.177 -1.564,-0.438 l -0.427,1.734 c 0.563,0.194 1.384,0.368 2.034,0.369 2.087,0.004 2.753,-0.92 2.97,-1.94 0.378,-1.742 -1.767,-2.702 -1.492,-3.651 m -48.763,2.179 c 1.016,-0.183 1.805,-1.069 2.022,-1.909 0.387,-1.476 -0.057,-2.27 -1.738,-2.274 h -3.405 L 139,44.466 h 1.919 l 1.534,-5.893 h 0.986 c 0.289,0 0.908,0 0.703,0.793 -0.153,0.59 -0.62,0.98 -1.502,0.966 h -0.055 l -0.655,10e-4 0.697,4.133 h 2.16 c 0,0 -0.7,-3.121 -0.724,-3.28 m 37.708,-0.003 c 1.016,-0.182 1.806,-1.069 2.024,-1.909 0.385,-1.475 -0.06,-2.27 -1.743,-2.27 h -3.404 l -1.942,7.462 h 1.918 l 1.538,-5.896 h 0.985 c 0.287,0 0.909,0 0.702,0.794 -0.153,0.589 -0.617,0.979 -1.5,0.965 h -0.711 l 0.7,4.135 h 2.158 c 0,0 -0.7,-3.123 -0.725,-3.28 m -105.328,3.282 0.418,-1.597 h -3.175 l 0.352,-1.351 h 2.59 l 0.415,-1.599 h -2.589 l 0.342,-1.31 h 3.175 l 0.416,-1.599 h -5.182 l -1.943,7.456 h 5.181 m -13.436,0 0.416,-1.597 H 60.25 l 0.352,-1.352 h 2.563 l 0.417,-1.6 h -2.565 l 0.342,-1.31 h 3.175 l 0.417,-1.597 h -5.182 l -1.944,7.456 h 5.183 m 17.774,0.124 c 0.366,0 1.37,-0.117 1.939,-0.213 l 0.483,-1.726 c -0.593,0.159 -1.2,0.302 -1.994,0.302 -1.236,0 -1.544,-1.07 -1.24,-2.223 0.262,-0.997 1.188,-2.237 2.753,-2.237 0.52,0 0.989,0.135 1.448,0.302 l 0.436,-1.675 c -0.472,-0.172 -1.232,-0.258 -1.793,-0.258 -2.29,0 -4.218,1.386 -4.87,3.856 -0.651,2.483 0.548,3.871 2.838,3.871 m 4.942,-0.123 1.944,-7.457 h -2.01 l -1.941,7.457 h 2.007 M 51.951,39.135 h 0.02 l -0.108,5.33 1.712,0.003 2.712,-5.345 h 0.019 l -1.388,5.343 h 1.7 l 1.94,-7.454 H 55.89 l -2.369,4.684 h -0.018 l 0.128,-4.684 h -2.826 l -1.943,7.454 h 1.699 l 1.39,-5.33 m 36.732,5.33 1.24,-4.761 h 0.021 l 1.236,4.761 h 2.342 l 1.942,-7.456 h -1.758 l -1.265,4.853 H 92.423 L 91.24,37.01 h -2.364 l -1.954,7.456 h 1.761 M 69.465,40.732 c -0.287,1.095 -1.082,2.136 -2.192,2.136 h -0.869 l 1.11,-4.262 h 1.003 c 1.07,0 1.31,0.74 0.948,2.126 z m 2.01,0 c 0.82,-3.154 -0.924,-3.723 -1.861,-3.723 h -3.608 l -1.941,7.459 h 3.184 c 2.2,-0.002 3.659,-1.566 4.225,-3.736 z M 97.963,39.02 c 0.103,-0.392 0.688,-0.53 0.997,-0.537 0.592,-0.013 0.943,0.145 1.327,0.379 0,0 0.382,-1.474 0.391,-1.55 -0.622,-0.343 -1.307,-0.427 -1.807,-0.427 -1.79,0 -2.72,1.05 -2.893,1.933 -0.336,1.738 1.776,2.701 1.547,3.501 -0.171,0.6 -0.75,0.628 -1.081,0.628 -0.563,0 -1.097,-0.178 -1.567,-0.438 l -0.427,1.733 c 0.563,0.194 1.385,0.368 2.037,0.37 2.086,0.003 2.749,-0.921 2.97,-1.938 0.377,-1.747 -1.75,-2.67 -1.494,-3.653"
       id="path4"
       style="fill:#000000;fill-rule:evenodd" />
    <path
       d="m 20.545,48.596 c 0.556,-0.32 1.807,-0.975 1.956,-1.064 0.24,-0.14 0.382,-0.122 0.39,-0.05 0.03,0.279 0.022,0.865 0.384,0.984 0.104,0.034 0.375,-0.09 0.424,-0.02 0.132,0.193 0.14,0.158 0.175,0.215 0.042,0.07 0.223,0.03 0.261,0.065 0.1,0.09 -0.006,0.207 0.052,0.27 0.094,0.097 0.269,-0.063 0.357,-0.045 0.163,0.031 0.203,0.21 0.176,0.324 -0.045,0.19 0.073,0.334 0.388,0.077 0.165,-0.135 0.176,-0.065 0.318,-0.135 0.084,-0.04 0.224,-0.036 0.283,0.023 0.06,0.057 0.155,0.16 0.243,0.192 0.132,0.047 0.273,-0.002 0.353,0.031 0.123,0.048 0.127,0.224 0.231,0.239 0.104,0.014 0.21,-0.184 0.277,-0.123 0.188,0.173 -0.158,0.473 0.081,0.538 0.13,0.035 0.183,-0.065 0.287,-0.08 0.105,-0.016 0.165,-0.137 0.255,-0.137 0.089,0 0.156,0.104 0.268,0.044 0.093,-0.05 0.167,-0.086 0.253,-0.137 0.127,-0.074 0.258,-0.037 0.331,-0.096 0.089,-0.07 0.021,-0.262 0.283,-0.215 0.27,0.05 -0.042,0.292 0.076,0.39 0.091,0.076 0.314,0.003 0.386,-0.022 0.147,-0.047 0.28,-0.222 0.33,-0.343 0.06,-0.146 0.284,-0.63 0.373,-0.759 0.09,-0.133 0.314,-0.644 0.432,-0.82 0.12,-0.174 0.597,-0.92 0.642,-1.036 0.044,-0.119 0.216,-0.278 0.26,-0.366 0.046,-0.088 0.143,-0.38 0.262,-0.615 0.12,-0.233 0.447,-0.701 0.478,-0.788 0.03,-0.089 0.282,-0.658 0.372,-0.833 0.09,-0.176 0.403,-0.578 0.479,-0.768 0.074,-0.19 0.281,-0.592 0.281,-0.592 l 0.224,-0.365 0.179,-0.38 c 0.106,-0.22 0.418,-0.687 0.508,-0.848 0.09,-0.161 0.343,-0.497 0.343,-0.497 l 0.194,-0.423 0.149,-0.322 c 0,0 0.12,-0.38 0.18,-0.483 0.058,-0.101 0.267,-0.35 0.327,-0.482 0.06,-0.132 0.239,-0.717 0.33,-0.891 0.088,-0.176 0.52,-0.935 0.566,-1.082 0.044,-0.145 0.491,-0.935 0.537,-1.095 0.044,-0.162 0.06,-0.38 0.118,-0.484 0.06,-0.101 0.24,-0.365 0.269,-0.439 0.03,-0.072 0.328,-0.774 0.373,-0.876 0.045,-0.101 0.075,-0.293 0.194,-0.293 0.12,0 0.205,0.127 0.283,0.234 0.09,0.126 0.27,0.103 0.374,0.205 0.104,0.103 0.446,0.468 0.463,0.527 0.013,0.058 0.207,0.073 0.252,0.131 0.045,0.059 0.075,0.206 0.135,0.234 0.06,0.03 0.358,0.233 0.417,0.322 0.06,0.087 0.134,0.264 0.21,0.32 0.073,0.06 0.416,0.265 0.46,0.352 0.045,0.087 0.538,0.672 0.598,0.774 0.06,0.102 0.105,0.278 0.148,0.352 0.046,0.072 0.224,0.175 0.24,0.248 0.014,0.073 0.03,0.336 0.075,0.41 0.044,0.072 0.252,0.16 0.282,0.233 0.03,0.073 0.12,0.35 0.165,0.395 0.045,0.043 0.133,0.103 0.163,0.16 0.031,0.059 0.061,0.381 0.105,0.438 0.044,0.06 0.194,0.307 0.238,0.41 0.046,0.101 0.196,0.292 0.225,0.365 0.029,0.072 0.044,0.367 0.074,0.467 0.03,0.103 0.165,0.322 0.179,0.382 0.015,0.058 0.046,0.233 0.046,0.233 l 0.119,0.278 c 0,0 0.134,0.276 0.134,0.38 0,0.102 0.029,0.219 0.044,0.291 0.016,0.074 0.135,0.262 0.135,0.321 0,0.06 0.164,0.396 0.164,0.396 0,0 -0.03,0.292 0,0.366 0.03,0.072 0.163,0.276 0.163,0.35 0,0.073 -0.043,0.264 -0.043,0.264 l 0.074,0.117 c 0,0 -0.045,0.16 -0.015,0.218 0.03,0.058 -0.03,0.191 0.015,0.234 0.044,0.044 0.164,0.353 0.164,0.353 -0.09,0.103 -6.313,2.922 -8.98,4.14 -3.843,1.759 -11.834,5.685 -12.684,6.166 -0.849,0.482 -1.386,0.76 -1.591,0.657 -0.473,-0.24 -1.24,-0.908 -1.766,-2.339 a 6.582,6.582 0 0 1 -0.41,-2.716 c 0.03,-0.386 0,-0.675 0.596,-1.012 0.208,-0.118 1.304,-0.723 1.86,-1.044"
       fill="#d8232a"
       id="path6"
       style="fill-rule:evenodd" />
    <path
       fill="#ffffff"
       d="m 147.25,53.366 h -0.017 l -1.183,-4.853 h -2.371 l -1.944,7.458 h 1.76 l 1.243,-4.766 h 0.017 l 1.235,4.766 h 2.345 l 1.943,-7.458 h -1.76 l -1.267,4.853 M 124.87,50.111 h 2.9 l 0.42,-1.6 h -4.905 l -1.95,7.46 h 2.01 l 0.769,-2.952 h 2.43 l 0.415,-1.6 h -2.427 l 0.339,-1.308 m 31.78,-1.599 h -5.663 l -0.418,1.596 h 1.831 l -1.528,5.86 h 2.01 l 1.527,-5.86 h 1.822 l 0.42,-1.596 m 0.705,0 -1.943,7.462 h 2.007 l 1.944,-7.462 h -2.008 m 6.548,4.505 0.415,-1.599 h -2.51 l 0.342,-1.31 h 3.175 l 0.419,-1.596 h -5.186 l -1.945,7.462 h 5.183 l 0.42,-1.605 h -3.176 l 0.352,-1.352 h 2.51 m 12.858,0 0.418,-1.6 -2.572,10e-4 0.342,-1.31 h 3.174 l 0.418,-1.596 h -5.182 l -1.947,7.46 h 5.183 l 0.418,-1.605 h -3.174 l 0.352,-1.35 h 2.57 M 139.944,52.25 c -0.329,1.187 -1.256,2.235 -2.4,2.235 -1.213,0 -1.527,-1.073 -1.227,-2.222 0.298,-1.154 1.175,-2.238 2.39,-2.238 1.168,0 1.519,1.025 1.237,2.225 z m -0.814,-3.857 c -2.265,0 -4.174,1.387 -4.818,3.857 -0.647,2.481 0.54,3.87 2.809,3.87 2.132,0 4.073,-1.232 4.782,-3.655 0.744,-2.627 -0.505,-4.072 -2.773,-4.072 z m -6.956,4.302 c 1.017,-0.183 1.806,-1.069 2.023,-1.909 0.387,-1.476 -0.058,-2.27 -1.739,-2.274 h -3.405 l -1.942,7.462 h 1.92 l 1.533,-5.893 h 0.986 c 0.289,0 0.908,0 0.703,0.793 -0.153,0.59 -0.62,0.98 -1.502,0.965 h -0.054 l -0.656,0.002 0.698,4.133 h 2.16 c 0,0 -0.701,-3.122 -0.725,-3.28 m 37.708,-0.003 c 1.016,-0.182 1.806,-1.069 2.024,-1.909 0.385,-1.476 -0.06,-2.27 -1.742,-2.27 h -3.405 l -1.942,7.462 h 1.918 l 1.538,-5.896 h 0.986 c 0.287,0 0.908,0 0.702,0.794 -0.154,0.589 -0.618,0.978 -1.501,0.965 h -0.71 l 0.699,4.135 h 2.159 c 0,0 -0.701,-3.123 -0.726,-3.28 m -68.132,0.669 h -0.018 l -1.182,-4.845 h -2.368 l -1.94,7.447 h 1.756 l 1.242,-4.758 h 0.018 l 1.233,4.758 h 2.341 l 1.94,-7.447 h -1.757 l -1.265,4.845 M 59.945,55.968 60.36,54.37 h -3.174 l 0.352,-1.352 h 2.563 l 0.417,-1.6 h -2.565 l 0.342,-1.31 h 3.176 l 0.416,-1.597 h -5.181 l -1.945,7.457 h 5.184 m 14.774,0.135 c 0.365,0 1.368,-0.116 1.938,-0.212 l 0.483,-1.726 c -0.592,0.159 -1.2,0.302 -1.994,0.302 -1.235,0 -1.544,-1.07 -1.239,-2.222 0.26,-0.998 1.187,-2.238 2.752,-2.238 0.52,0 0.989,0.135 1.448,0.302 l 0.436,-1.675 c -0.471,-0.172 -1.232,-0.258 -1.792,-0.258 -2.29,0 -4.219,1.386 -4.871,3.856 -0.651,2.483 0.549,3.871 2.839,3.871 m -4.556,-0.135 1.944,-7.458 h -2.01 l -1.941,7.458 h 2.007 M 48.956,50.635 h 0.02 l -0.108,5.33 1.711,0.002 2.713,-5.345 h 0.018 l -1.387,5.344 h 1.7 l 1.94,-7.454 h -2.667 l -2.37,4.683 h -0.018 l 0.129,-4.683 H 47.81 l -1.943,7.454 h 1.698 l 1.39,-5.331 m 17.448,1.598 c -0.287,1.095 -1.083,2.136 -2.193,2.136 h -0.868 l 1.109,-4.263 h 1.003 c 1.07,0 1.311,0.74 0.949,2.127 z m 2.009,0 c 0.82,-3.154 -0.923,-3.723 -1.861,-3.723 h -3.607 l -1.942,7.459 h 3.184 c 2.2,-0.002 3.66,-1.566 4.226,-3.736 z m 11.254,-3.723 -1.942,7.458 h 2.006 l 1.943,-7.458 h -2.007 m 8.42,2.002 c 0.103,-0.393 0.688,-0.531 0.996,-0.538 0.593,-0.012 0.944,0.145 1.327,0.379 0,0 0.383,-1.474 0.392,-1.55 -0.622,-0.343 -1.307,-0.427 -1.808,-0.427 -1.79,0 -2.72,1.05 -2.893,1.933 -0.335,1.738 1.777,2.702 1.548,3.502 -0.171,0.599 -0.75,0.627 -1.082,0.627 -0.562,0 -1.097,-0.178 -1.567,-0.438 l -0.426,1.734 c 0.563,0.194 1.385,0.367 2.037,0.369 2.086,0.003 2.748,-0.921 2.97,-1.938 0.376,-1.747 -1.75,-2.67 -1.494,-3.653 m 7.086,5.451 0.416,-1.594 h -3.173 l 0.353,-1.352 h 2.588 l 0.415,-1.597 h -2.587 l 0.341,-1.308 h 3.173 l 0.416,-1.6 h -5.178 l -1.943,7.451 h 5.18 m 18.449,-3.708 1.34,-2.136 h 0.018 l 0.133,2.136 h -1.49 z m 0.607,-3.74 c -1.65,2.5 -3.283,5.025 -5.01,7.457 h 2.198 l 1.318,-2.153 h 2.354 l 0.128,2.153 h 2.13 c -0.254,-2.478 -0.559,-5.014 -0.71,-7.458 h -2.408 z m -8.575,-0.008 h 5.57 l -0.428,1.634 -4.328,4.23 h 3.225 l -1.097,1.6 h -5.083 l 0.429,-1.634 4.298,-4.23 h -3.004 l 0.418,-1.6"
       id="path8"
       style="fill:#000000;fill-rule:evenodd" />
    <path
       d="m 9.48,27.007 c 0.03,0.065 0.163,0.051 0.257,0.075 0.053,0.014 0.152,0.106 0.213,0.113 0.062,0.007 0.15,-0.023 0.181,0 0.099,0.073 0.08,0.17 0.139,0.257 0.06,0.087 0.09,0.234 0.179,0.263 0.09,0.03 0.209,0.015 0.24,0.103 0.029,0.087 -0.038,0.223 0.029,0.335 0.17,0.289 0.022,1.096 0.171,1.156 0.149,0.058 0.599,-0.084 0.753,-0.22 0.16,-0.14 0.386,-0.385 0.507,-0.438 0.232,-0.103 0.681,-0.337 0.895,-0.38 0.215,-0.043 0.326,-0.39 0.537,-0.41 0.212,-0.018 0.135,-0.183 0.284,-0.24 0.149,-0.06 0.43,-0.208 0.519,-0.121 0.04,0.04 0.124,0.152 0.262,0.204 0.164,0.062 0.338,-0.018 0.368,0.157 0.044,0.262 0.447,0.03 0.447,0.03 0,0 0.496,-0.316 0.705,-0.402 0.208,-0.088 0.764,-0.372 0.764,-0.372 0,0 0.438,-0.222 0.62,-0.308 6.72,-3.162 12.02,-4.906 16.885,-6.752 7.576,-2.875 20.686,-6.171 23.179,-6.781 0.262,-0.065 0.843,-0.152 0.915,-0.194 0.071,-0.04 0.19,-0.069 0.249,-0.304 0.06,-0.233 -0.12,-0.554 -0.12,-0.671 0,-0.118 0.269,-0.585 0.299,-0.79 0.03,-0.204 -0.18,-0.233 -0.18,-0.233 0,0 0.028,-0.254 -0.03,-0.439 -0.054,-0.185 -0.388,-0.351 -0.446,-0.498 -0.06,-0.145 0,-0.584 -0.06,-0.73 -0.059,-0.147 -0.24,-0.263 -0.24,-0.263 0,0 0.044,-0.077 0,-0.204 -0.04,-0.127 -0.178,-0.118 -0.178,-0.118 0,0 0.054,-0.278 0.03,-0.38 -0.024,-0.102 -0.178,-0.175 -0.178,-0.175 0,0 -0.18,-0.117 -0.18,-0.233 0,-0.117 -0.03,-0.205 -0.119,-0.263 -0.09,-0.06 -0.358,-0.06 -0.448,-0.089 -0.09,-0.029 -0.297,-0.087 -0.447,-0.058 -0.15,0.03 -0.209,0.147 -0.627,0.234 -0.417,0.088 -0.596,0 -0.774,0.03 -0.181,0.029 -0.386,0.15 -0.597,0.203 -2.029,0.519 -11.336,3.172 -18.2,5.701 -6.377,2.35 -13.979,5.737 -18.615,8.096 -3.506,1.786 -5.382,2.818 -6.158,3.29 -0.4,0.243 -0.84,0.529 -0.906,0.643 -0.105,0.177 -0.227,0.448 -0.457,0.48 -0.282,0.04 -0.242,0.191 -0.331,0.213 -0.105,0.025 -0.226,0.137 -0.314,0.22 -0.088,0.082 -0.054,0.197 -0.022,0.263 m 28.974,-4.078 c -0.31,-0.182 -0.203,-0.353 0.157,-0.504 2.22,-0.93 7.825,-2.888 11.037,-3.888 2.744,-0.853 10.322,-3.271 12.436,-3.867 0.506,-0.141 0.711,-0.136 0.936,0.097 0.572,0.595 1.129,1.398 1.653,2.393 0.484,0.92 0.9,2.249 1.066,3.084 0.12,0.612 -0.167,0.716 -0.507,0.865 -2.346,1.029 -8.132,3.512 -10.538,4.625 -2.352,1.089 -6.653,3.114 -8.11,3.833 -0.616,0.303 -0.514,0.428 -0.932,-0.04 -0.127,-0.14 -0.33,-0.467 -0.387,-0.555 -0.06,-0.088 -0.866,-0.79 -0.956,-0.877 -0.089,-0.088 -0.537,-0.614 -0.655,-0.701 -0.121,-0.088 -0.508,-0.614 -0.627,-0.673 -0.12,-0.058 -0.322,-0.153 -0.41,-0.24 -0.09,-0.088 -0.247,-0.272 -0.336,-0.33 A 2.885,2.885 0 0 1 41.989,25.888 L 41.714,25.64 41.475,25.376 c 0,0 -0.209,-0.262 -0.357,-0.32 -0.15,-0.059 -0.359,-0.292 -0.418,-0.382 -0.06,-0.085 -0.537,-0.67 -0.777,-0.817 a 25.636,25.636 0 0 1 -0.931,-0.6 c -0.12,-0.087 -0.28,-0.178 -0.538,-0.328 m 8.539,8.008 c -0.23,-0.225 0.064,-0.258 0.329,-0.358 0.979,-0.37 6.818,-2.16 11.902,-3.472 5.065,-1.304 12.397,-2.794 13.484,-3.01 0.46,-0.092 0.634,-0.023 0.867,0.344 0.27,0.425 0.83,1.84 1.044,2.982 0.274,1.448 0.013,2.924 -0.119,3.274 -0.11,0.293 -0.524,0.314 -1.512,0.576 -0.592,0.159 -3.12,0.796 -4.157,1.09 -1.191,0.339 -4.353,1.235 -5.518,1.625 -1.44,0.48 -3.339,1.094 -3.339,1.094 l -10.056,0.167 c 0,0 -0.15,-0.663 -0.239,-0.723 -0.09,-0.059 -0.24,-0.38 -0.329,-0.468 -0.087,-0.088 -0.208,-0.41 -0.208,-0.41 0,0 -0.09,-0.35 -0.179,-0.409 -0.09,-0.058 -0.305,-0.562 -0.395,-0.62 -0.091,-0.059 -0.292,-0.314 -0.38,-0.432 -0.091,-0.116 -0.142,-0.263 -0.29,-0.38 -0.15,-0.117 -0.336,-0.351 -0.456,-0.409 -0.12,-0.059 -0.22,-0.238 -0.45,-0.461 M 34.83,11.941 c -0.286,0.01 -0.536,0.007 -0.605,-0.077 -0.038,-0.048 0.003,-0.126 -0.067,-0.186 -0.072,-0.062 -0.212,-0.044 -0.257,-0.01 -0.045,0.032 -0.032,0.032 -0.134,0.065 -0.1,0.033 -0.481,-0.1 -0.615,-0.055 -0.134,0.044 -0.42,0.057 -0.515,0.012 -0.097,-0.048 -0.113,-0.304 -0.28,-0.374 -0.088,-0.037 -0.369,-0.187 -0.458,-0.34 -0.09,-0.153 -0.325,-0.381 -0.375,-0.49 A 8.84,8.84 0 0 1 31.361,10.111 1.715,1.715 0 0 0 31.184,9.771 C 31.127,9.705 31.051,9.647 30.993,9.585 30.933,9.522 30.885,9.314 30.825,9.223 30.795,9.177 30.726,9.084 30.69,9.015 30.655,8.945 30.657,8.865 30.624,8.785 30.59,8.704 30.489,8.587 30.467,8.511 30.445,8.434 30.411,7.918 30.421,7.525 30.433,7.129 30.423,6.781 30.467,6.615 30.508,6.455 30.59,6.307 30.624,6.143 30.657,5.979 30.869,5.442 30.926,5.19 30.981,4.938 31.116,4.466 31.184,4.3 31.25,4.137 31.429,3.699 31.519,3.556 c 0.089,-0.143 0.425,-0.636 0.56,-0.8 0.132,-0.165 0.749,-0.767 0.894,-0.877 a 22.969,22.969 0 0 1 1.23,-0.855 0.642,0.642 0 0 1 0.27,-0.066 l 0.144,-0.143 c 0,0 0.08,-0.087 0.156,-0.142 0.08,-0.054 0.27,-0.054 0.27,-0.054 0,0 0.217,-0.168 0.446,-0.122 0.102,0.021 0.17,-0.153 0.258,-0.174 0.09,-0.023 0.414,-0.066 0.459,-0.023 0.045,0.044 0.1,0.099 0.28,0.132 0.179,0.033 0.334,-0.008 0.403,0.011 0.092,0.025 0.19,0.142 0.257,0.164 0.067,0.022 0.883,0.76 0.995,0.943 0.038,0.064 0.05,0.184 0.068,0.22 0.033,0.062 0.174,0.147 0.223,0.35 0.038,0.16 0.203,0.21 0.224,0.439 0.011,0.138 0.274,0.253 0.347,0.536 0.018,0.069 0.053,0.347 0.075,0.39 0.022,0.044 0.082,0.06 0.115,0.158 a 1,1 0 0 1 0.046,0.362 c -0.013,0.121 0.21,0.57 0.189,0.844 -0.022,0.275 -0.077,0.57 -0.145,0.78 -0.068,0.206 -0.022,0.6 -0.068,0.767 -0.044,0.163 -0.167,0.558 -0.19,0.678 -0.022,0.122 -0.369,0.954 -0.425,1.042 -0.056,0.087 -0.253,0.463 -0.342,0.572 -0.09,0.11 -0.778,1.05 -0.9,1.173 -0.124,0.12 -0.432,0.345 -0.492,0.436 -0.082,0.124 -0.148,0.27 -0.234,0.406 -0.138,0.215 -0.323,0.056 -0.415,0.208 -0.124,0.207 -0.361,0.262 -0.403,0.384 a 0.992,0.992 0 0 1 -0.29,0.405 c -0.166,0.135 -0.518,0.236 -0.694,0.241 M 14.738,40.817 c 0,0 -2.943,0.974 -4.118,1.382 -1.114,0.389 -2.332,0.81 -3.155,1.14 -0.995,0.397 -2.757,1.1 -3.176,1.244 -0.656,0.226 -0.934,0.092 -1.114,-0.29 -0.179,-0.379 -0.602,-1.175 -0.841,-2.11 -0.238,-0.935 -0.325,-1.71 -0.338,-1.999 -0.014,-0.289 0.23,-0.803 0.589,-0.995 0.36,-0.194 1.214,-0.706 1.9,-1.093 1.312,-0.738 5.831,-3.1 8.523,-4.463 2.85,-1.446 7.345,-3.58 9.76,-4.749 2.42,-1.169 6.386,-3.01 6.865,-3.215 0.476,-0.204 0.983,-0.439 1.221,-0.439 0.239,0 0.15,0.117 0.15,0.205 0,0.088 -0.082,0.125 -0.112,0.3 -0.03,0.175 -0.008,0.373 -0.067,0.55 -0.06,0.173 -0.216,0.34 -0.246,0.458 -0.03,0.117 -0.053,0.534 -0.172,0.68 -0.119,0.146 -0.544,0.957 -0.634,1.337 -0.089,0.38 -0.29,1.002 -0.38,1.147 -0.09,0.146 -0.373,0.694 -0.403,0.87 -0.03,0.175 -0.223,0.592 -0.283,0.768 -0.06,0.175 -0.417,0.826 -0.477,0.942 -0.06,0.117 -0.3,0.9 -0.359,1.015 -0.06,0.118 -0.298,0.468 -0.298,0.468 l -0.12,0.497 c 0,0 -0.327,0.469 -0.327,0.556 0,0.089 -0.24,0.878 -0.358,1.053 -0.12,0.174 -0.687,1.431 -0.806,1.87 a 17.96,17.96 0 0 1 -0.388,1.228 c -0.06,0.145 -0.387,0.671 -0.446,0.847 -0.061,0.176 -0.33,1.052 -0.419,1.227 -0.089,0.176 -0.328,0.673 -0.328,0.849 0,0.175 -0.179,0.556 -0.328,0.875 -0.149,0.322 -0.328,0.878 -0.418,1.083 -0.09,0.204 -0.21,0.347 -0.24,0.465 -0.029,0.116 -0.057,0.44 -0.088,0.528 -0.03,0.089 -0.09,0.235 -0.09,0.235 -0.148,0.07 -8.175,3.448 -9.307,3.975 -1.135,0.525 -9.278,4.306 -9.784,4.54 -0.508,0.234 -1.183,0.743 -1.672,0.419 -0.645,-0.43 -1.257,-1.328 -1.671,-2.124 -0.345,-0.665 -0.72,-1.774 -0.776,-2.572 -0.068,-1.007 0.36,-1.192 1.868,-2.048 0.739,-0.42 6.598,-3.446 8.477,-4.4 0.533,-0.269 4.386,-2.256 4.386,-2.256"
       fill="#d8232a"
       id="path10"
       style="fill-rule:evenodd" />
  </g>
</svg>
