<?xml version="1.0" encoding="UTF-8" standalone="no"?>
<svg
   xmlns:dc="http://purl.org/dc/elements/1.1/"
   xmlns:cc="http://creativecommons.org/ns#"
   xmlns:rdf="http://www.w3.org/1999/02/22-rdf-syntax-ns#"
   xmlns:svg="http://www.w3.org/2000/svg"
   xmlns="http://www.w3.org/2000/svg"
   xmlns:sodipodi="http://sodipodi.sourceforge.net/DTD/sodipodi-0.dtd"
   xmlns:inkscape="http://www.inkscape.org/namespaces/inkscape"
   version="1.1"
   id="Livello_1"
   x="0px"
   y="0px"
   width="566.929px"
   height="566.929px"
   viewBox="0 0 566.929 566.929"
   enable-background="new 0 0 566.929 566.929"
   xml:space="preserve"
   sodipodi:docname="runpolito.svg"
   inkscape:version="1.0.1 (3bc2e813f5, 2020-09-07)"
   inkscape:export-filename="C:\Users\aborr\Documents\GitHub\datibenecomune\imgs\loghi\runpolito.png"
   inkscape:export-xdpi="96"
   inkscape:export-ydpi="96"><metadata
   id="metadata65"><rdf:RDF><cc:Work
       rdf:about=""><dc:format>image/svg+xml</dc:format><dc:type
         rdf:resource="http://purl.org/dc/dcmitype/StillImage" /></cc:Work></rdf:RDF></metadata><defs
   id="defs63"><linearGradient
     id="SVGID_1_"
     gradientUnits="userSpaceOnUse"
     x1="111.1782"
     y1="425.0596"
     x2="394.49399"
     y2="141.7438"><stop
       offset="0"
       style="stop-color:#E1923E"
       id="stop10" /><stop
       offset="0.4519"
       style="stop-color:#E68434"
       id="stop12" /><stop
       offset="1"
       style="stop-color:#ED6B27"
       id="stop14" /></linearGradient></defs><sodipodi:namedview
   pagecolor="#ffffff"
   bordercolor="#666666"
   borderopacity="1"
   objecttolerance="10"
   gridtolerance="10"
   guidetolerance="10"
   inkscape:pageopacity="0"
   inkscape:pageshadow="2"
   inkscape:window-width="2560"
   inkscape:window-height="1017"
   id="namedview61"
   showgrid="false"
   inkscape:zoom="0.32411465"
   inkscape:cx="1610.9967"
   inkscape:cy="442.54923"
   inkscape:window-x="1912"
   inkscape:window-y="-8"
   inkscape:window-maximized="1"
   inkscape:current-layer="Livello_1" />


<g
   id="g265"
   transform="matrix(1.0192257,0,0,1.0192257,-0.682137,-1.0956278)"><g
     id="g58"
     transform="translate(-2.5754065,-11.956141)"><path
       fill="#ffffff"
       stroke="#000000"
       stroke-width="0.5"
       stroke-miterlimit="10"
       d="m 497.786,220.639 6.467,35.069 11.852,-2.67 8.42,42.591 -58.733,11.253 c -7.383,107.27 -106.777,190.854 -213.215,190.854 -118.339,0 -214.271,-95.931 -214.271,-214.271 0,-118.339 95.933,-214.271 214.271,-214.271 84.749,0 163.445,53.174 194.252,126.366 -0.001,0 39.954,-10.721 50.957,25.079 z"
       id="path8" /><linearGradient
       id="linearGradient148"
       gradientUnits="userSpaceOnUse"
       x1="111.1782"
       y1="425.0596"
       x2="394.49399"
       y2="141.7438"><stop
         offset="0"
         style="stop-color:#E1923E"
         id="stop142" /><stop
         offset="0.4519"
         style="stop-color:#E68434"
         id="stop144" /><stop
         offset="1"
         style="stop-color:#ED6B27"
         id="stop146" /></linearGradient><circle
       fill="url(#SVGID_1_)"
       stroke="#ffffff"
       stroke-width="25"
       stroke-miterlimit="10"
       cx="252.83501"
       cy="283.401"
       r="200.334"
       id="circle17"
       style="fill:url(#SVGID_1_)" /><g
       id="g21"><path
         fill="#ffffff"
         d="m 78.988,160.37 c 22.365,-7.774 55.616,-14.708 93.67,-21.033 46.979,-7.807 81.647,-7.596 107.314,7.415 21.418,12.673 38.098,33.981 43.186,64.585 7.055,42.453 -19.252,76.512 -44.777,91.409 l 0.246,1.479 c 23.641,5.71 42.957,27.085 56.031,56.362 16.1,35.875 33.51,69.932 41.75,81.75 l -60,19 c -6.727,-8.52 -21.545,-36.594 -37.75,-76 -15.348,-40.059 -44.789,-49.348 -74,-45 l -28.75,5.75 23.5,127.25 -69,-20.5 z m 87.663,139.923 37.007,-5.955 c 35.704,-5.934 65.948,-28.558 57.25,-71.75 -7.25,-36 -38.282,-43.222 -71.25,-38.25 -17.382,2.889 -37.694,7.395 -42.698,9.24 z"
         id="path19" /></g><g
       id="g30"><g
         id="g28"><g
           id="star"><g
             id="g25"><polygon
               fill="#ffffff"
               points="437.697,389.022 418.531,352.026 448.046,320.946 405.708,329.589 384.035,292.094 377.197,334.53 329.697,342.696 372.615,361.952 366.865,406.522 398.197,373.856 "
               id="polygon23" /></g></g></g></g><g
       id="g44"><path
         d="m 321.688,443.542 3.818,-0.761 0.777,-0.155 1.553,-0.309 c 0.405,-0.215 0.687,-0.384 0.842,-0.506 0.525,-0.511 0.656,-1.438 0.389,-2.779 l -0.285,-1.093 -5.206,-26.124 c -0.25,-1.256 -0.613,-2.004 -1.088,-2.248 -0.475,-0.242 -0.889,-0.352 -1.242,-0.326 l -1.877,0.374 -4.272,0.851 -1.354,-6.796 38.125,-7.598 c 4.789,-0.954 8.869,-0.577 12.237,1.128 3.368,1.707 5.436,4.48 6.2,8.32 0.766,3.842 -0.042,7.334 -2.421,10.477 -2.38,3.145 -5.813,5.163 -10.301,6.057 l -14.888,2.967 2.165,10.861 c 0.155,0.78 0.333,1.332 0.531,1.652 0.198,0.322 0.564,0.586 1.101,0.795 l 1.41,-0.012 2.719,-0.541 4.66,-0.929 1.354,6.796 -33.593,6.695 z m 19.653,-25.317 6.86,-1.367 c 1.854,-0.37 3.188,-0.771 4.001,-1.2 0.811,-0.432 1.554,-1.264 2.228,-2.498 0.674,-1.232 0.848,-2.669 0.521,-4.31 -0.387,-1.942 -1.292,-3.275 -2.715,-4.001 -1.423,-0.727 -2.634,-1.113 -3.63,-1.161 -0.997,-0.048 -2.51,0.13 -4.537,0.534 l -5.308,1.057 z"
         id="path32" /><path
         d="m 386.589,402.814 c 6.214,-1.238 11.475,-0.68 15.779,1.677 4.306,2.355 6.988,6.191 8.048,11.51 1.051,5.275 0.062,9.821 -2.969,13.639 -3.031,3.818 -7.695,6.354 -13.996,7.609 -6.387,1.272 -11.688,0.734 -15.901,-1.617 -4.215,-2.352 -6.856,-6.208 -7.926,-11.569 -1.042,-5.231 -0.061,-9.764 2.943,-13.599 3.006,-3.836 7.68,-6.386 14.022,-7.65 z m -2.918,18.45 c 1.483,7.443 4.338,10.743 8.568,9.901 4.314,-0.86 5.735,-4.99 4.261,-12.391 -1.483,-7.443 -4.384,-10.735 -8.698,-9.875 -4.229,0.842 -5.605,4.964 -4.131,12.365 z"
         id="path34" /><path
         d="m 411.697,426.143 3.884,-0.774 c 0.689,-0.137 1.143,-0.396 1.359,-0.775 0.216,-0.379 0.347,-0.797 0.39,-1.254 l -0.297,-1.489 -0.374,-1.878 -5.186,-26.02 c -0.24,-1.208 -0.556,-1.998 -0.943,-2.369 -0.387,-0.371 -1.034,-0.467 -1.94,-0.287 l -3.689,0.736 -1.252,-6.279 19.548,-3.895 7.43,37.282 0.297,1.489 c 0.111,0.337 0.355,0.658 0.73,0.965 0.375,0.307 0.973,0.377 1.792,0.214 l 3.496,-0.696 1.252,6.279 -25.244,5.03 z"
         id="path36" /><path
         d="m 435.71,421.356 3.301,-0.657 c 0.949,-0.188 1.589,-0.528 1.917,-1.021 0.329,-0.491 0.368,-1.362 0.118,-2.615 l -0.478,-2.395 -2.257,-11.327 c -0.224,-1.122 -0.564,-1.872 -1.021,-2.253 -0.458,-0.381 -1.204,-0.467 -2.24,-0.26 l -3.301,0.657 -1.303,-6.538 19.483,-3.882 4.644,23.302 0.4,1.67 c 0.067,0.121 0.136,0.231 0.2,0.33 0.064,0.1 0.246,0.277 0.543,0.531 0.297,0.256 0.921,0.287 1.87,0.098 l 3.301,-0.658 1.252,6.279 -25.179,5.018 z m 4.173,-43.901 c 2.027,-0.404 3.904,-0.161 5.63,0.729 1.725,0.891 2.747,2.134 3.065,3.729 0.344,1.727 -0.09,3.382 -1.298,4.97 -1.228,1.501 -2.833,2.448 -4.817,2.844 -0.993,0.198 -1.925,0.249 -2.796,0.154 -0.871,-0.097 -1.756,-0.367 -2.653,-0.818 -1.647,-0.837 -2.634,-2.076 -2.961,-3.717 -0.361,-1.813 0.023,-3.48 1.155,-5.008 1.131,-1.525 2.69,-2.487 4.675,-2.883 z"
         id="path38" /><path
         d="m 453.737,390.577 c 2.503,-0.947 4.289,-1.831 5.36,-2.65 1.07,-0.818 1.964,-2.017 2.682,-3.596 0.414,-0.845 0.756,-1.89 1.024,-3.132 0.269,-1.241 0.153,-3.114 -0.346,-5.618 l 7.962,-1.586 2.489,12.492 11.651,-2.322 1.328,6.667 -11.65,2.321 2.842,14.26 0.398,2 c 0.034,0.172 0.111,0.447 0.231,0.825 0.119,0.378 0.353,0.925 0.696,1.64 0.345,0.713 1.121,0.95 2.329,0.709 2.157,-0.43 2.839,-2.637 2.045,-6.623 l -0.679,-3.407 6.278,-1.251 1.07,5.372 c 1.437,7.207 -1.988,11.635 -10.273,13.286 -5.653,1.126 -9.335,0.773 -11.046,-1.063 -1.713,-1.834 -2.827,-3.261 -3.344,-4.28 -0.207,-0.587 -0.412,-1.274 -0.613,-2.064 -0.203,-0.789 -0.479,-2.069 -0.832,-3.839 l -2.645,-13.27 -5.761,1.148 z"
         id="path40" /><path
         d="m 504.392,379.339 c 6.214,-1.238 11.474,-0.68 15.778,1.676 4.307,2.355 6.988,6.192 8.048,11.51 1.052,5.276 0.062,9.822 -2.969,13.639 -3.031,3.818 -7.695,6.354 -13.995,7.609 -6.387,1.273 -11.688,0.734 -15.901,-1.617 -4.216,-2.352 -6.857,-6.207 -7.926,-11.568 -1.042,-5.231 -0.062,-9.764 2.943,-13.6 3.005,-3.837 7.679,-6.385 14.022,-7.649 z m -2.918,18.449 c 1.482,7.443 4.338,10.743 8.567,9.9 4.315,-0.859 5.735,-4.99 4.261,-12.391 -1.483,-7.443 -4.383,-10.734 -8.698,-9.875 -4.229,0.844 -5.604,4.966 -4.13,12.366 z"
         id="path42" /></g><g
       id="g50"><path
         d="m 256.195,214.461 66.61,-13.274 3.304,16.58 -10.259,2.044 c -3.748,0.747 -5.138,3.542 -4.174,8.383 l 9.534,47.843 c 1.615,8.107 2.671,12.793 3.168,14.062 0.495,1.271 1.699,3.026 3.607,5.272 3.442,4.568 9.567,5.975 18.374,4.219 l 4.637,-0.924 c 0.915,-0.29 1.751,-0.621 2.506,-0.992 0.753,-0.37 1.677,-0.992 2.77,-1.867 3.588,-2.031 5.86,-4.924 6.817,-8.68 0.955,-3.753 0.741,-9.11 -0.646,-16.072 l -10.151,-50.938 c -0.609,-3.06 -1.284,-4.98 -2.025,-5.766 -0.74,-0.784 -2.235,-0.952 -4.483,-0.504 l -10.118,2.016 -3.304,-16.58 51.714,-10.306 3.305,16.58 -10.259,2.044 c -2.343,0.467 -3.683,0.954 -4.021,1.457 -0.337,0.506 -0.579,1.375 -0.722,2.606 -0.145,1.234 -0.048,2.692 0.287,4.375 l 9.849,49.422 c 1.511,7.579 2.144,13.691 1.901,18.336 -0.243,4.645 -1.643,9.356 -4.197,14.133 -2.554,4.777 -6.708,8.862 -12.461,12.252 -5.754,3.388 -13.456,6.047 -23.104,7.97 -7.496,1.494 -13.896,2.248 -19.2,2.266 -5.307,0.016 -11.01,-0.868 -17.113,-2.664 -6.106,-1.791 -10.606,-4.945 -13.501,-9.457 -2.896,-4.513 -5.697,-13.558 -8.403,-27.137 l -9.188,-46.105 c -0.608,-3.052 -1.447,-4.937 -2.516,-5.655 -1.069,-0.715 -2.866,-0.824 -5.396,-0.319 l -9.837,1.96 z"
         id="path46" /><path
         d="m 395.029,289.398 8.01,-1.596 c 1.592,-0.317 2.676,-1.108 3.252,-2.377 0.574,-1.266 0.579,-3.327 0.011,-6.179 l -0.411,-2.061 -6.281,-31.522 -0.804,-3.3 -1.285,-2.05 c -0.794,-1.047 -1.987,-1.415 -3.579,-1.097 l -8.572,1.708 -3.21,-16.106 41.034,-8.178 2.36,11.843 2.586,-4.62 5.176,-6.285 c 2.774,-3.18 8.66,-5.666 17.654,-7.458 10.961,-2.184 18.514,-1.055 22.663,3.384 4.147,4.439 6.643,8.77 7.483,12.989 l 2.334,11.711 4.921,24.693 c 0.652,3.271 1.219,5.27 1.706,5.996 0.485,0.727 1.452,1.054 2.899,0.984 l 8.15,-1.625 3.021,15.158 -48.341,9.633 -3.021,-15.158 2.67,-0.532 0.984,-0.196 c 2.811,-0.56 3.712,-3.366 2.705,-8.419 l -4.656,-23.369 c -2.035,-10.209 -6.333,-14.662 -12.89,-13.355 -3.935,0.784 -6.947,3.026 -9.034,6.726 -1.899,3.662 -2.314,8.177 -1.245,13.545 l 4.186,21 c 0.65,3.265 1.326,5.317 2.031,6.162 0.702,0.845 1.899,1.099 3.585,0.763 l 0.703,-0.14 0.422,-0.084 3.794,-0.756 3.021,15.158 -51.011,10.165 z"
         id="path48" /></g><path
       fill="#e30613"
       d="m 230.285,266.644 v -7.75 c 0,0 11.833,-4.167 10.333,-15.167 0,0 -15.667,7.25 -18.667,-10.417 -3,-17.667 21.584,-20.416 27.25,-8.333 5.667,12.084 8.084,34.667 -18.916,41.667 z"
       id="path52" /><path
       fill="none"
       stroke="#000000"
       stroke-miterlimit="10"
       d="M 448.046,194.08"
       id="path54" /><path
       fill="none"
       stroke="#000000"
       stroke-miterlimit="10"
       d="M 468.908,194.08"
       id="path56" /></g></g></svg>
